<svg xmlns="http://www.w3.org/2000/svg" xmlns:xlink="http://www.w3.org/1999/xlink" width="180" zoomAndPan="magnify" viewBox="0 0 135 30.000001" height="40" preserveAspectRatio="xMidYMid meet" version="1.0"><defs><g/><clipPath id="id1"><path d="M 2.175781 20 L 7 20 L 7 28 L 2.175781 28 Z M 2.175781 20 " clip-rule="nonzero"/></clipPath><clipPath id="id2"><path d="M 2.175781 7 L 7 7 L 7 14 L 2.175781 14 Z M 2.175781 7 " clip-rule="nonzero"/></clipPath><clipPath id="id3"><path d="M 25 7 L 29.757812 7 L 29.757812 14 L 25 14 Z M 25 7 " clip-rule="nonzero"/></clipPath><clipPath id="id4"><path d="M 25 20 L 29.757812 20 L 29.757812 28 L 25 28 Z M 25 20 " clip-rule="nonzero"/></clipPath><clipPath id="id5"><path d="M 3 7 L 29 7 L 29 29.03125 L 3 29.03125 Z M 3 7 " clip-rule="nonzero"/></clipPath><clipPath id="id6"><path d="M 124 6 L 132.820312 6 L 132.820312 16 L 124 16 Z M 124 6 " clip-rule="nonzero"/></clipPath></defs><g clip-path="url(#id1)"><path fill="#00c2cb" d="M 2.65625 27.671875 C 2.679688 27.671875 2.703125 27.671875 2.746094 27.671875 C 2.949219 27.671875 3.152344 27.515625 3.195312 27.3125 L 4.089844 22.511719 L 6.734375 21.402344 C 6.597656 21.128906 6.484375 20.855469 6.375 20.5625 L 3.507812 21.761719 C 3.375 21.832031 3.261719 21.945312 3.238281 22.101562 L 2.300781 27.128906 C 2.253906 27.378906 2.410156 27.628906 2.65625 27.671875 Z M 2.65625 27.671875 " fill-opacity="1" fill-rule="nonzero"/></g><g clip-path="url(#id2)"><path fill="#00c2cb" d="M 3.933594 12.457031 C 3.980469 12.613281 4.089844 12.726562 4.246094 12.773438 L 6.261719 13.359375 C 6.351562 13.066406 6.484375 12.796875 6.597656 12.523438 L 4.738281 11.980469 L 3.621094 8.085938 C 3.554688 7.835938 3.308594 7.699219 3.0625 7.769531 C 2.816406 7.835938 2.679688 8.085938 2.746094 8.332031 Z M 3.933594 12.457031 " fill-opacity="1" fill-rule="nonzero"/></g><path fill="#00c2cb" d="M 11.613281 0.949219 C 11.636719 0.949219 14.410156 1.609375 15.171875 3.757812 C 13.316406 4.121094 11.925781 5.773438 11.925781 7.746094 C 11.925781 7.902344 11.992188 8.039062 12.128906 8.128906 C 12.195312 8.175781 12.285156 8.199219 12.375 8.199219 L 19.539062 8.199219 C 19.628906 8.199219 19.71875 8.175781 19.785156 8.128906 C 19.898438 8.039062 19.988281 7.902344 19.988281 7.746094 C 19.988281 5.773438 18.597656 4.121094 16.738281 3.757812 C 17.5 1.609375 20.253906 0.949219 20.300781 0.949219 C 20.546875 0.90625 20.703125 0.65625 20.636719 0.40625 C 20.589844 0.160156 20.34375 0 20.097656 0.0664062 C 19.988281 0.0898438 16.917969 0.792969 15.957031 3.304688 C 14.992188 0.792969 11.949219 0.0898438 11.792969 0.046875 C 11.546875 0 11.320312 0.136719 11.253906 0.386719 C 11.210938 0.632812 11.367188 0.882812 11.613281 0.949219 Z M 17.613281 5.050781 C 17.433594 5.117188 17.300781 5.277344 17.300781 5.480469 C 17.300781 5.730469 17.5 5.933594 17.746094 5.933594 C 17.835938 5.933594 17.90625 5.910156 17.972656 5.867188 C 18.082031 5.796875 18.171875 5.660156 18.195312 5.527344 C 18.644531 6 18.957031 6.613281 19.070312 7.292969 L 12.84375 7.292969 C 12.933594 6.613281 13.246094 6 13.71875 5.527344 C 13.738281 5.660156 13.808594 5.796875 13.941406 5.867188 C 14.007812 5.910156 14.074219 5.933594 14.164062 5.933594 C 14.410156 5.933594 14.613281 5.730469 14.613281 5.480469 C 14.613281 5.277344 14.480469 5.117188 14.300781 5.050781 C 14.769531 4.753906 15.351562 4.574219 15.957031 4.574219 C 16.5625 4.574219 17.121094 4.753906 17.613281 5.050781 Z M 17.613281 5.050781 " fill-opacity="1" fill-rule="nonzero"/><g clip-path="url(#id3)"><path fill="#00c2cb" d="M 25.71875 13.472656 L 28.136719 12.773438 C 28.292969 12.726562 28.40625 12.613281 28.449219 12.457031 L 29.613281 8.3125 C 29.679688 8.0625 29.546875 7.8125 29.300781 7.746094 C 29.054688 7.675781 28.808594 7.8125 28.742188 8.0625 L 27.644531 11.957031 L 25.382812 12.613281 C 25.515625 12.910156 25.628906 13.203125 25.71875 13.472656 Z M 25.71875 13.472656 " fill-opacity="1" fill-rule="nonzero"/></g><g clip-path="url(#id4)"><path fill="#00c2cb" d="M 28.671875 21.875 C 28.652344 21.71875 28.539062 21.605469 28.40625 21.535156 L 25.628906 20.359375 C 25.515625 20.652344 25.40625 20.925781 25.292969 21.195312 L 27.84375 22.261719 L 28.742188 27.0625 C 28.785156 27.289062 28.964844 27.425781 29.1875 27.425781 C 29.210938 27.425781 29.234375 27.425781 29.277344 27.425781 C 29.523438 27.378906 29.679688 27.128906 29.636719 26.902344 Z M 28.671875 21.875 " fill-opacity="1" fill-rule="nonzero"/></g><g clip-path="url(#id5)"><path fill="#00c2cb" d="M 8.03125 11.683594 C 7.449219 12.613281 7 13.65625 6.777344 14.765625 L 5.074219 14.765625 C 4.402344 14.765625 3.890625 15.375 3.890625 16.125 L 3.890625 17.484375 C 3.890625 18.230469 4.425781 18.839844 5.074219 18.839844 L 6.777344 18.839844 C 7.023438 19.953125 7.449219 20.992188 8.054688 21.921875 L 6.84375 23.144531 C 6.375 23.621094 6.417969 24.433594 6.957031 24.957031 L 7.898438 25.90625 C 8.1875 26.203125 8.546875 26.335938 8.902344 26.335938 C 9.195312 26.335938 9.484375 26.222656 9.710938 26.019531 L 10.917969 24.796875 C 11.835938 25.386719 12.867188 25.839844 13.964844 26.089844 L 13.964844 27.832031 C 13.964844 28.488281 14.570312 29.03125 15.308594 29.03125 L 16.652344 29.03125 C 17.390625 29.03125 17.992188 28.488281 17.992188 27.832031 L 17.992188 26.089844 C 19.089844 25.839844 20.121094 25.410156 21.039062 24.796875 L 22.246094 26.019531 C 22.472656 26.246094 22.738281 26.335938 23.054688 26.335938 C 23.390625 26.335938 23.769531 26.203125 24.039062 25.90625 L 24.980469 24.957031 C 25.492188 24.414062 25.539062 23.621094 25.089844 23.144531 L 23.882812 21.921875 C 24.464844 20.992188 24.910156 19.953125 25.15625 18.839844 L 26.859375 18.839844 C 27.507812 18.839844 28.046875 18.230469 28.046875 17.484375 L 28.046875 16.125 C 28.046875 15.375 27.507812 14.765625 26.859375 14.765625 L 25.136719 14.765625 C 24.890625 13.65625 24.464844 12.613281 23.859375 11.683594 L 25.070312 10.460938 C 25.539062 9.988281 25.492188 9.171875 24.957031 8.652344 L 24.015625 7.699219 C 23.726562 7.40625 23.367188 7.269531 23.007812 7.269531 C 22.71875 7.269531 22.425781 7.382812 22.203125 7.585938 L 20.992188 8.808594 C 20.570312 9.21875 20.121094 9.578125 19.515625 9.578125 L 12.351562 9.578125 C 11.703125 9.578125 11.320312 9.261719 10.875 8.808594 L 9.6875 7.5625 C 9.464844 7.335938 9.195312 7.246094 8.882812 7.246094 C 8.546875 7.246094 8.164062 7.382812 7.875 7.675781 L 6.933594 8.628906 C 6.398438 9.148438 6.351562 9.964844 6.820312 10.441406 Z M 15.957031 12.273438 C 17.746094 12.273438 19.203125 13.699219 19.203125 15.445312 C 19.203125 15.695312 19 15.898438 18.753906 15.898438 C 18.507812 15.898438 18.308594 15.695312 18.308594 15.445312 C 18.308594 14.199219 17.253906 13.179688 15.957031 13.179688 C 14.65625 13.179688 13.605469 14.199219 13.605469 15.445312 C 13.605469 15.695312 13.402344 15.898438 13.15625 15.898438 C 12.910156 15.898438 12.710938 15.695312 12.710938 15.445312 C 12.710938 13.699219 14.164062 12.273438 15.957031 12.273438 Z M 16.40625 16.804688 C 16.40625 17.050781 16.203125 17.257812 15.957031 17.257812 C 15.710938 17.257812 15.507812 17.050781 15.507812 16.804688 C 15.507812 16.554688 15.710938 16.351562 15.957031 16.351562 C 16.203125 16.351562 16.40625 16.554688 16.40625 16.804688 Z M 11.480469 16.351562 C 11.726562 16.351562 11.925781 16.554688 11.925781 16.804688 C 11.925781 19.046875 13.738281 20.878906 15.957031 20.878906 C 18.171875 20.878906 19.988281 19.046875 19.988281 16.804688 C 19.988281 16.554688 20.1875 16.351562 20.433594 16.351562 C 20.679688 16.351562 20.882812 16.554688 20.882812 16.804688 C 20.882812 19.542969 18.664062 21.785156 15.957031 21.785156 C 13.246094 21.785156 11.03125 19.542969 11.03125 16.804688 C 11.03125 16.554688 11.234375 16.351562 11.480469 16.351562 Z M 11.480469 16.351562 " fill-opacity="1" fill-rule="nonzero"/></g><g fill="#0c1a62" fill-opacity="1"><g transform="translate(39.268623, 15.012798)"><g><path d="M 0.859375 -8.5625 L 4.90625 -8.5625 C 5.863281 -8.5625 6.625 -8.367188 7.1875 -7.984375 C 7.757812 -7.597656 8.046875 -7.078125 8.046875 -6.421875 C 8.046875 -5.972656 7.914062 -5.578125 7.65625 -5.234375 C 7.394531 -4.898438 7.035156 -4.664062 6.578125 -4.53125 C 7.117188 -4.425781 7.546875 -4.175781 7.859375 -3.78125 C 8.179688 -3.394531 8.34375 -2.925781 8.34375 -2.375 C 8.34375 -1.644531 8.046875 -1.066406 7.453125 -0.640625 C 6.859375 -0.210938 6.054688 0 5.046875 0 L 0.859375 0 Z M 3.015625 -6.90625 L 3.015625 -5.140625 L 4.78125 -5.140625 C 5.101562 -5.140625 5.359375 -5.21875 5.546875 -5.375 C 5.734375 -5.53125 5.828125 -5.75 5.828125 -6.03125 C 5.828125 -6.300781 5.734375 -6.515625 5.546875 -6.671875 C 5.359375 -6.828125 5.101562 -6.90625 4.78125 -6.90625 Z M 3.015625 -3.578125 L 3.015625 -1.671875 L 4.78125 -1.671875 C 5.1875 -1.671875 5.503906 -1.753906 5.734375 -1.921875 C 5.972656 -2.097656 6.09375 -2.335938 6.09375 -2.640625 C 6.09375 -2.929688 5.972656 -3.160156 5.734375 -3.328125 C 5.503906 -3.492188 5.1875 -3.578125 4.78125 -3.578125 Z M 3.015625 -3.578125 "/></g></g></g><g fill="#0c1a62" fill-opacity="1"><g transform="translate(48.631374, 15.012798)"><g><path d="M 8.5625 -8.5625 L 8.5625 -3.59375 C 8.5625 -2.457031 8.207031 -1.554688 7.5 -0.890625 C 6.800781 -0.234375 5.851562 0.09375 4.65625 0.09375 C 3.445312 0.09375 2.484375 -0.234375 1.765625 -0.890625 C 1.054688 -1.554688 0.703125 -2.457031 0.703125 -3.59375 L 0.703125 -8.5625 L 2.890625 -8.5625 L 2.890625 -3.59375 C 2.890625 -3.019531 3.050781 -2.5625 3.375 -2.21875 C 3.707031 -1.882812 4.140625 -1.71875 4.671875 -1.71875 C 5.191406 -1.71875 5.609375 -1.882812 5.921875 -2.21875 C 6.242188 -2.5625 6.40625 -3.019531 6.40625 -3.59375 L 6.40625 -8.5625 Z M 8.5625 -8.5625 "/></g></g></g><g fill="#0c1a62" fill-opacity="1"><g transform="translate(58.520385, 15.012798)"><g><path d="M 6.546875 -4.359375 L 8.421875 -4.359375 L 8.421875 -1.015625 C 7.960938 -0.691406 7.40625 -0.425781 6.75 -0.21875 C 6.09375 -0.0078125 5.46875 0.09375 4.875 0.09375 C 3.5625 0.09375 2.46875 -0.320312 1.59375 -1.15625 C 0.726562 -1.988281 0.296875 -3.03125 0.296875 -4.28125 C 0.296875 -5.519531 0.742188 -6.554688 1.640625 -7.390625 C 2.535156 -8.222656 3.660156 -8.640625 5.015625 -8.640625 C 5.648438 -8.640625 6.28125 -8.523438 6.90625 -8.296875 C 7.539062 -8.066406 8.078125 -7.753906 8.515625 -7.359375 L 7.296875 -5.890625 C 6.984375 -6.171875 6.625 -6.394531 6.21875 -6.5625 C 5.8125 -6.726562 5.40625 -6.8125 5 -6.8125 C 4.300781 -6.8125 3.710938 -6.566406 3.234375 -6.078125 C 2.753906 -5.597656 2.515625 -5 2.515625 -4.28125 C 2.515625 -3.550781 2.753906 -2.941406 3.234375 -2.453125 C 3.722656 -1.960938 4.320312 -1.71875 5.03125 -1.71875 C 5.488281 -1.71875 5.992188 -1.859375 6.546875 -2.140625 Z M 6.546875 -4.359375 "/></g></g></g><g fill="#0c1a62" fill-opacity="1"><g transform="translate(68.225814, 15.012798)"><g><path d="M 7.40625 -6.8125 L 4.828125 -6.8125 L 4.828125 0 L 2.640625 0 L 2.640625 -6.8125 L 0.078125 -6.8125 L 0.078125 -8.578125 L 7.40625 -8.578125 Z M 7.40625 -6.8125 "/></g></g></g><g fill="#0c1a62" fill-opacity="1"><g transform="translate(76.315742, 15.012798)"><g><path d="M 6.015625 0 L 4.75 -2.40625 L 3.03125 -2.40625 L 3.03125 0 L 0.859375 0 L 0.859375 -8.5625 L 4.6875 -8.5625 C 5.820312 -8.5625 6.695312 -8.300781 7.3125 -7.78125 C 7.9375 -7.269531 8.25 -6.535156 8.25 -5.578125 C 8.25 -4.253906 7.726562 -3.335938 6.6875 -2.828125 L 8.484375 0 Z M 3.03125 -4.125 L 4.6875 -4.125 C 5.15625 -4.125 5.519531 -4.238281 5.78125 -4.46875 C 6.039062 -4.707031 6.171875 -5.050781 6.171875 -5.5 C 6.171875 -5.945312 6.039062 -6.28125 5.78125 -6.5 C 5.519531 -6.726562 5.15625 -6.84375 4.6875 -6.84375 L 3.03125 -6.84375 Z M 3.03125 -4.125 "/></g></g></g><g fill="#0c1a62" fill-opacity="1"><g transform="translate(85.788642, 15.012798)"><g><path d="M 6.546875 -1.578125 L 2.796875 -1.578125 L 2.171875 0 L -0.0625 0 L 3.640625 -8.5625 L 5.875 -8.5625 L 9.484375 0 L 7.15625 0 Z M 5.90625 -3.234375 L 4.6875 -6.40625 L 3.4375 -3.234375 Z M 5.90625 -3.234375 "/></g></g></g><g fill="#0c1a62" fill-opacity="1"><g transform="translate(95.824516, 15.012798)"><g><path d="M 4.875 -8.640625 C 5.507812 -8.640625 6.132812 -8.507812 6.75 -8.25 C 7.363281 -7.988281 7.882812 -7.632812 8.3125 -7.1875 L 7.0625 -5.703125 C 6.78125 -6.046875 6.445312 -6.316406 6.0625 -6.515625 C 5.675781 -6.710938 5.289062 -6.8125 4.90625 -6.8125 C 4.226562 -6.8125 3.660156 -6.570312 3.203125 -6.09375 C 2.742188 -5.625 2.515625 -5.035156 2.515625 -4.328125 C 2.515625 -3.609375 2.742188 -3.007812 3.203125 -2.53125 C 3.660156 -2.050781 4.226562 -1.8125 4.90625 -1.8125 C 5.257812 -1.8125 5.628906 -1.898438 6.015625 -2.078125 C 6.410156 -2.253906 6.757812 -2.5 7.0625 -2.8125 L 8.328125 -1.46875 C 7.867188 -1 7.320312 -0.617188 6.6875 -0.328125 C 6.050781 -0.046875 5.421875 0.09375 4.796875 0.09375 C 3.503906 0.09375 2.429688 -0.320312 1.578125 -1.15625 C 0.722656 -2 0.296875 -3.050781 0.296875 -4.3125 C 0.296875 -5.539062 0.726562 -6.566406 1.59375 -7.390625 C 2.46875 -8.222656 3.5625 -8.640625 4.875 -8.640625 Z M 4.875 -8.640625 "/></g></g></g><g fill="#0c1a62" fill-opacity="1"><g transform="translate(104.905774, 15.012798)"><g><path d="M 6.4375 0 L 4.171875 -3.359375 L 3.03125 -2.109375 L 3.03125 0 L 0.859375 0 L 0.859375 -8.5625 L 3.03125 -8.5625 L 3.03125 -4.859375 L 6.3125 -8.5625 L 8.828125 -8.5625 L 5.65625 -5.015625 L 9.046875 0 Z M 6.4375 0 "/></g></g></g><g fill="#0c1a62" fill-opacity="1"><g transform="translate(114.660157, 15.012798)"><g><path d="M 7.5625 -6.84375 L 3.03125 -6.84375 L 3.03125 -5.15625 L 7.125 -5.15625 L 7.125 -3.4375 L 3.03125 -3.4375 L 3.03125 -1.71875 L 7.703125 -1.71875 L 7.703125 0 L 0.859375 0 L 0.859375 -8.5625 L 7.5625 -8.5625 Z M 7.5625 -6.84375 "/></g></g></g><g clip-path="url(#id6)"><g fill="#0c1a62" fill-opacity="1"><g transform="translate(123.521117, 15.012798)"><g><path d="M 6.015625 0 L 4.75 -2.40625 L 3.03125 -2.40625 L 3.03125 0 L 0.859375 0 L 0.859375 -8.5625 L 4.6875 -8.5625 C 5.820312 -8.5625 6.695312 -8.300781 7.3125 -7.78125 C 7.9375 -7.269531 8.25 -6.535156 8.25 -5.578125 C 8.25 -4.253906 7.726562 -3.335938 6.6875 -2.828125 L 8.484375 0 Z M 3.03125 -4.125 L 4.6875 -4.125 C 5.15625 -4.125 5.519531 -4.238281 5.78125 -4.46875 C 6.039062 -4.707031 6.171875 -5.050781 6.171875 -5.5 C 6.171875 -5.945312 6.039062 -6.28125 5.78125 -6.5 C 5.519531 -6.726562 5.15625 -6.84375 4.6875 -6.84375 L 3.03125 -6.84375 Z M 3.03125 -4.125 "/></g></g></g></g><g fill="#00c2cb" fill-opacity="1"><g transform="translate(41.519942, 23.875629)"><g><path d="M 4.0625 -3.75 L 2.640625 -3.75 L 2.640625 0 L 1.453125 0 L 1.453125 -3.75 L 0.046875 -3.75 L 0.046875 -4.703125 L 4.0625 -4.703125 Z M 4.0625 -3.75 "/></g></g></g><g fill="#00c2cb" fill-opacity="1"><g transform="translate(46.428778, 23.875629)"><g><path d="M 4.15625 -3.765625 L 1.671875 -3.765625 L 1.671875 -2.828125 L 3.90625 -2.828125 L 3.90625 -1.890625 L 1.671875 -1.890625 L 1.671875 -0.9375 L 4.21875 -0.9375 L 4.21875 0 L 0.46875 0 L 0.46875 -4.703125 L 4.15625 -4.703125 Z M 4.15625 -3.765625 "/></g></g></g><g fill="#00c2cb" fill-opacity="1"><g transform="translate(51.760601, 23.875629)"><g><path d="M 3.59375 -0.859375 L 1.53125 -0.859375 L 1.203125 0 L -0.03125 0 L 2 -4.703125 L 3.21875 -4.703125 L 5.203125 0 L 3.9375 0 Z M 3.25 -1.78125 L 2.578125 -3.515625 L 1.890625 -1.78125 Z M 3.25 -1.78125 "/></g></g></g><g fill="#00c2cb" fill-opacity="1"><g transform="translate(57.736971, 23.875629)"><g><path d="M 5.640625 0 L 4.578125 0 L 4.578125 -3.0625 L 3.453125 -0.46875 L 2.671875 -0.46875 L 1.53125 -3.0625 L 1.53125 0 L 0.46875 0 L 0.46875 -4.703125 L 1.78125 -4.703125 L 3.0625 -1.90625 L 4.328125 -4.703125 L 5.640625 -4.703125 Z M 5.640625 0 "/></g></g></g><g fill="#00c2cb" fill-opacity="1"><g transform="translate(64.653309, 23.875629)"><g/></g></g><g fill="#00c2cb" fill-opacity="1"><g transform="translate(67.017526, 23.875629)"><g><path d="M 0.46875 -4.703125 L 2.5 -4.703125 C 3.226562 -4.703125 3.820312 -4.484375 4.28125 -4.046875 C 4.75 -3.617188 4.984375 -3.050781 4.984375 -2.34375 C 4.984375 -1.65625 4.75 -1.09375 4.28125 -0.65625 C 3.8125 -0.21875 3.203125 0 2.453125 0 L 0.46875 0 Z M 1.671875 -3.75 L 1.671875 -0.953125 L 2.515625 -0.953125 C 2.890625 -0.953125 3.191406 -1.082031 3.421875 -1.34375 C 3.660156 -1.601562 3.78125 -1.9375 3.78125 -2.34375 C 3.78125 -2.757812 3.65625 -3.097656 3.40625 -3.359375 C 3.15625 -3.617188 2.84375 -3.75 2.46875 -3.75 Z M 1.671875 -3.75 "/></g></g></g><g fill="#00c2cb" fill-opacity="1"><g transform="translate(72.973755, 23.875629)"><g><path d="M 4.15625 -3.765625 L 1.671875 -3.765625 L 1.671875 -2.828125 L 3.90625 -2.828125 L 3.90625 -1.890625 L 1.671875 -1.890625 L 1.671875 -0.9375 L 4.21875 -0.9375 L 4.21875 0 L 0.46875 0 L 0.46875 -4.703125 L 4.15625 -4.703125 Z M 4.15625 -3.765625 "/></g></g></g><g fill="#00c2cb" fill-opacity="1"><g transform="translate(78.305577, 23.875629)"><g><path d="M 3.0625 0 L 1.828125 0 L 0 -4.703125 L 1.265625 -4.703125 L 2.46875 -1.25 L 3.671875 -4.703125 L 4.90625 -4.703125 Z M 3.0625 0 "/></g></g></g><g fill="#00c2cb" fill-opacity="1"><g transform="translate(84.006671, 23.875629)"><g><path d="M 4.15625 -3.765625 L 1.671875 -3.765625 L 1.671875 -2.828125 L 3.90625 -2.828125 L 3.90625 -1.890625 L 1.671875 -1.890625 L 1.671875 -0.9375 L 4.21875 -0.9375 L 4.21875 0 L 0.46875 0 L 0.46875 -4.703125 L 4.15625 -4.703125 Z M 4.15625 -3.765625 "/></g></g></g><g fill="#00c2cb" fill-opacity="1"><g transform="translate(89.338493, 23.875629)"><g><path d="M 1.671875 -1 L 3.65625 -1 L 3.65625 0 L 0.46875 0 L 0.46875 -4.703125 L 1.671875 -4.703125 Z M 1.671875 -1 "/></g></g></g><g fill="#00c2cb" fill-opacity="1"><g transform="translate(93.904916, 23.875629)"><g><path d="M 2.703125 -4.75 C 3.429688 -4.75 4.035156 -4.519531 4.515625 -4.0625 C 5.003906 -3.601562 5.25 -3.035156 5.25 -2.359375 C 5.25 -1.671875 5.003906 -1.097656 4.515625 -0.640625 C 4.035156 -0.179688 3.429688 0.046875 2.703125 0.046875 C 1.972656 0.046875 1.363281 -0.179688 0.875 -0.640625 C 0.394531 -1.097656 0.15625 -1.671875 0.15625 -2.359375 C 0.15625 -3.046875 0.394531 -3.613281 0.875 -4.0625 C 1.363281 -4.519531 1.972656 -4.75 2.703125 -4.75 Z M 2.71875 -3.75 C 2.34375 -3.75 2.023438 -3.613281 1.765625 -3.34375 C 1.515625 -3.070312 1.390625 -2.738281 1.390625 -2.34375 C 1.390625 -1.957031 1.519531 -1.628906 1.78125 -1.359375 C 2.039062 -1.085938 2.351562 -0.953125 2.71875 -0.953125 C 3.082031 -0.953125 3.390625 -1.085938 3.640625 -1.359375 C 3.890625 -1.628906 4.015625 -1.957031 4.015625 -2.34375 C 4.015625 -2.738281 3.890625 -3.070312 3.640625 -3.34375 C 3.390625 -3.613281 3.082031 -3.75 2.71875 -3.75 Z M 2.71875 -3.75 "/></g></g></g><g fill="#00c2cb" fill-opacity="1"><g transform="translate(100.116274, 23.875629)"><g><path d="M 0.46875 -4.703125 L 2.515625 -4.703125 C 3.117188 -4.703125 3.585938 -4.554688 3.921875 -4.265625 C 4.253906 -3.984375 4.421875 -3.582031 4.421875 -3.0625 C 4.421875 -2.507812 4.253906 -2.082031 3.921875 -1.78125 C 3.585938 -1.476562 3.117188 -1.328125 2.515625 -1.328125 L 1.671875 -1.328125 L 1.671875 0 L 0.46875 0 Z M 1.671875 -3.765625 L 1.671875 -2.265625 L 2.453125 -2.265625 C 2.722656 -2.265625 2.925781 -2.328125 3.0625 -2.453125 C 3.207031 -2.585938 3.28125 -2.773438 3.28125 -3.015625 C 3.28125 -3.265625 3.207031 -3.453125 3.0625 -3.578125 C 2.925781 -3.703125 2.722656 -3.765625 2.453125 -3.765625 Z M 1.671875 -3.765625 "/></g></g></g><g fill="#00c2cb" fill-opacity="1"><g transform="translate(105.488381, 23.875629)"><g><path d="M 5.640625 0 L 4.578125 0 L 4.578125 -3.0625 L 3.453125 -0.46875 L 2.671875 -0.46875 L 1.53125 -3.0625 L 1.53125 0 L 0.46875 0 L 0.46875 -4.703125 L 1.78125 -4.703125 L 3.0625 -1.90625 L 4.328125 -4.703125 L 5.640625 -4.703125 Z M 5.640625 0 "/></g></g></g><g fill="#00c2cb" fill-opacity="1"><g transform="translate(112.404717, 23.875629)"><g><path d="M 4.15625 -3.765625 L 1.671875 -3.765625 L 1.671875 -2.828125 L 3.90625 -2.828125 L 3.90625 -1.890625 L 1.671875 -1.890625 L 1.671875 -0.9375 L 4.21875 -0.9375 L 4.21875 0 L 0.46875 0 L 0.46875 -4.703125 L 4.15625 -4.703125 Z M 4.15625 -3.765625 "/></g></g></g><g fill="#00c2cb" fill-opacity="1"><g transform="translate(117.736539, 23.875629)"><g><path d="M 4.8125 0 L 3.75 0 L 1.59375 -2.890625 L 1.59375 0 L 0.46875 0 L 0.46875 -4.703125 L 1.53125 -4.703125 L 3.6875 -1.796875 L 3.6875 -4.703125 L 4.8125 -4.703125 Z M 4.8125 0 "/></g></g></g><g fill="#00c2cb" fill-opacity="1"><g transform="translate(123.82033, 23.875629)"><g><path d="M 4.0625 -3.75 L 2.640625 -3.75 L 2.640625 0 L 1.453125 0 L 1.453125 -3.75 L 0.046875 -3.75 L 0.046875 -4.703125 L 4.0625 -4.703125 Z M 4.0625 -3.75 "/></g></g></g></svg>