<svg xmlns="http://www.w3.org/2000/svg" xmlns:xlink="http://www.w3.org/1999/xlink" width="48" zoomAndPan="magnify" viewBox="0 0 36 36.000001" height="48" preserveAspectRatio="xMidYMid meet" version="1.0"><defs><g/><clipPath id="id1"><path d="M 0.488281 0 L 35.511719 0 L 35.511719 35.027344 L 0.488281 35.027344 Z M 0.488281 0 " clip-rule="nonzero"/></clipPath><clipPath id="id2"><path d="M 11.527344 15 L 14 15 L 14 19 L 11.527344 19 Z M 11.527344 15 " clip-rule="nonzero"/></clipPath><clipPath id="id3"><path d="M 11.527344 9 L 14 9 L 14 13 L 11.527344 13 Z M 11.527344 9 " clip-rule="nonzero"/></clipPath><clipPath id="id4"><path d="M 15 6.308594 L 21 6.308594 L 21 11 L 15 11 Z M 15 6.308594 " clip-rule="nonzero"/></clipPath><clipPath id="id5"><path d="M 22 9 L 24.664062 9 L 24.664062 13 L 22 13 Z M 22 9 " clip-rule="nonzero"/></clipPath><clipPath id="id6"><path d="M 22 15 L 24.664062 15 L 24.664062 19 L 22 19 Z M 22 15 " clip-rule="nonzero"/></clipPath><clipPath id="id7"><path d="M 12 9 L 24 9 L 24 19.445312 L 12 19.445312 Z M 12 9 " clip-rule="nonzero"/></clipPath></defs><g clip-path="url(#id1)"><path fill="#ffffff" d="M 0.488281 0 L 35.511719 0 L 35.511719 42.324219 L 0.488281 42.324219 Z M 0.488281 0 " fill-opacity="1" fill-rule="nonzero"/><path fill="#ffffff" d="M 0.488281 0 L 35.511719 0 L 35.511719 35.027344 L 0.488281 35.027344 Z M 0.488281 0 " fill-opacity="1" fill-rule="nonzero"/><path fill="#ffffff" d="M 0.488281 0 L 35.511719 0 L 35.511719 35.027344 L 0.488281 35.027344 Z M 0.488281 0 " fill-opacity="1" fill-rule="nonzero"/><path fill="#ffffff" d="M 0.488281 0 L 35.511719 0 L 35.511719 35.027344 L 0.488281 35.027344 Z M 0.488281 0 " fill-opacity="1" fill-rule="nonzero"/></g><g clip-path="url(#id2)"><path fill="#00c2cb" d="M 11.757812 18.828125 C 11.769531 18.828125 11.777344 18.828125 11.800781 18.828125 C 11.894531 18.828125 11.992188 18.757812 12.011719 18.664062 L 12.4375 16.492188 L 13.699219 15.992188 C 13.632812 15.867188 13.578125 15.746094 13.527344 15.613281 L 12.160156 16.15625 C 12.097656 16.1875 12.042969 16.238281 12.035156 16.308594 L 11.585938 18.582031 C 11.566406 18.695312 11.640625 18.808594 11.757812 18.828125 Z M 11.757812 18.828125 " fill-opacity="1" fill-rule="nonzero"/></g><g clip-path="url(#id3)"><path fill="#00c2cb" d="M 12.363281 11.945312 C 12.386719 12.015625 12.4375 12.066406 12.515625 12.089844 L 13.472656 12.355469 C 13.515625 12.222656 13.578125 12.097656 13.632812 11.976562 L 12.75 11.730469 L 12.214844 9.96875 C 12.183594 9.855469 12.066406 9.792969 11.949219 9.824219 C 11.832031 9.855469 11.769531 9.96875 11.800781 10.078125 Z M 12.363281 11.945312 " fill-opacity="1" fill-rule="nonzero"/></g><g clip-path="url(#id4)"><path fill="#00c2cb" d="M 16.019531 6.738281 C 16.03125 6.738281 17.355469 7.035156 17.714844 8.011719 C 16.832031 8.175781 16.171875 8.921875 16.171875 9.8125 C 16.171875 9.886719 16.203125 9.945312 16.265625 9.988281 C 16.296875 10.007812 16.339844 10.019531 16.382812 10.019531 L 19.796875 10.019531 C 19.839844 10.019531 19.878906 10.007812 19.914062 9.988281 C 19.964844 9.945312 20.007812 9.886719 20.007812 9.8125 C 20.007812 8.921875 19.347656 8.175781 18.460938 8.011719 C 18.824219 7.035156 20.136719 6.738281 20.15625 6.738281 C 20.273438 6.71875 20.351562 6.605469 20.316406 6.492188 C 20.296875 6.382812 20.179688 6.308594 20.0625 6.339844 C 20.007812 6.351562 18.546875 6.667969 18.089844 7.804688 C 17.632812 6.667969 16.179688 6.351562 16.105469 6.328125 C 15.988281 6.308594 15.882812 6.371094 15.851562 6.484375 C 15.828125 6.597656 15.902344 6.707031 16.019531 6.738281 Z M 18.878906 8.59375 C 18.792969 8.625 18.730469 8.695312 18.730469 8.789062 C 18.730469 8.902344 18.824219 8.992188 18.941406 8.992188 C 18.984375 8.992188 19.015625 8.984375 19.050781 8.964844 C 19.101562 8.933594 19.144531 8.871094 19.15625 8.808594 C 19.367188 9.023438 19.519531 9.300781 19.570312 9.609375 L 16.609375 9.609375 C 16.648438 9.300781 16.800781 9.023438 17.023438 8.808594 C 17.035156 8.871094 17.066406 8.933594 17.128906 8.964844 C 17.164062 8.984375 17.195312 8.992188 17.238281 8.992188 C 17.355469 8.992188 17.449219 8.902344 17.449219 8.789062 C 17.449219 8.695312 17.386719 8.625 17.300781 8.59375 C 17.523438 8.460938 17.800781 8.378906 18.089844 8.378906 C 18.378906 8.378906 18.644531 8.460938 18.878906 8.59375 Z M 18.878906 8.59375 " fill-opacity="1" fill-rule="nonzero"/></g><g clip-path="url(#id5)"><path fill="#00c2cb" d="M 22.738281 12.40625 L 23.890625 12.089844 C 23.964844 12.066406 24.015625 12.015625 24.039062 11.945312 L 24.59375 10.070312 C 24.625 9.957031 24.5625 9.84375 24.445312 9.8125 C 24.328125 9.78125 24.210938 9.84375 24.175781 9.957031 L 23.65625 11.71875 L 22.578125 12.015625 C 22.640625 12.148438 22.695312 12.28125 22.738281 12.40625 Z M 22.738281 12.40625 " fill-opacity="1" fill-rule="nonzero"/></g><g clip-path="url(#id6)"><path fill="#00c2cb" d="M 24.144531 16.207031 C 24.132812 16.136719 24.082031 16.082031 24.015625 16.054688 L 22.695312 15.519531 C 22.640625 15.652344 22.589844 15.777344 22.535156 15.898438 L 23.75 16.382812 L 24.175781 18.554688 C 24.199219 18.65625 24.285156 18.71875 24.390625 18.71875 C 24.402344 18.71875 24.410156 18.71875 24.433594 18.71875 C 24.550781 18.695312 24.625 18.582031 24.605469 18.480469 Z M 24.144531 16.207031 " fill-opacity="1" fill-rule="nonzero"/></g><g clip-path="url(#id7)"><path fill="#00c2cb" d="M 14.316406 11.597656 C 14.039062 12.015625 13.824219 12.488281 13.71875 12.988281 L 12.910156 12.988281 C 12.589844 12.988281 12.34375 13.265625 12.34375 13.605469 L 12.34375 14.21875 C 12.34375 14.558594 12.597656 14.832031 12.910156 14.832031 L 13.71875 14.832031 C 13.835938 15.335938 14.039062 15.808594 14.328125 16.226562 L 13.75 16.78125 C 13.527344 16.996094 13.546875 17.363281 13.804688 17.601562 L 14.25 18.03125 C 14.390625 18.164062 14.5625 18.226562 14.730469 18.226562 C 14.871094 18.226562 15.007812 18.175781 15.113281 18.082031 L 15.691406 17.527344 C 16.128906 17.796875 16.617188 18 17.140625 18.113281 L 17.140625 18.902344 C 17.140625 19.199219 17.429688 19.445312 17.78125 19.445312 L 18.421875 19.445312 C 18.773438 19.445312 19.058594 19.199219 19.058594 18.902344 L 19.058594 18.113281 C 19.582031 18 20.074219 17.804688 20.507812 17.527344 L 21.085938 18.082031 C 21.191406 18.183594 21.320312 18.226562 21.46875 18.226562 C 21.628906 18.226562 21.808594 18.164062 21.9375 18.03125 L 22.386719 17.601562 C 22.632812 17.355469 22.652344 16.996094 22.4375 16.78125 L 21.863281 16.226562 C 22.140625 15.808594 22.355469 15.335938 22.472656 14.832031 L 23.28125 14.832031 C 23.589844 14.832031 23.847656 14.558594 23.847656 14.21875 L 23.847656 13.605469 C 23.847656 13.265625 23.589844 12.988281 23.28125 12.988281 L 22.460938 12.988281 C 22.34375 12.488281 22.140625 12.015625 21.851562 11.597656 L 22.429688 11.042969 C 22.652344 10.828125 22.632812 10.457031 22.375 10.222656 L 21.925781 9.792969 C 21.789062 9.660156 21.617188 9.597656 21.449219 9.597656 C 21.308594 9.597656 21.171875 9.648438 21.0625 9.742188 L 20.488281 10.296875 C 20.285156 10.480469 20.074219 10.644531 19.785156 10.644531 L 16.375 10.644531 C 16.0625 10.644531 15.882812 10.5 15.667969 10.296875 L 15.105469 9.730469 C 14.996094 9.628906 14.871094 9.589844 14.722656 9.589844 C 14.5625 9.589844 14.378906 9.648438 14.242188 9.78125 L 13.792969 10.214844 C 13.539062 10.449219 13.515625 10.816406 13.738281 11.03125 Z M 18.089844 11.863281 C 18.941406 11.863281 19.636719 12.507812 19.636719 13.296875 C 19.636719 13.410156 19.539062 13.5 19.421875 13.5 C 19.304688 13.5 19.210938 13.410156 19.210938 13.296875 C 19.210938 12.734375 18.707031 12.273438 18.089844 12.273438 C 17.472656 12.273438 16.96875 12.734375 16.96875 13.296875 C 16.96875 13.410156 16.875 13.5 16.757812 13.5 C 16.640625 13.5 16.542969 13.410156 16.542969 13.296875 C 16.542969 12.507812 17.238281 11.863281 18.089844 11.863281 Z M 18.304688 13.910156 C 18.304688 14.023438 18.207031 14.117188 18.089844 14.117188 C 17.972656 14.117188 17.875 14.023438 17.875 13.910156 C 17.875 13.800781 17.972656 13.707031 18.089844 13.707031 C 18.207031 13.707031 18.304688 13.800781 18.304688 13.910156 Z M 15.957031 13.707031 C 16.074219 13.707031 16.171875 13.800781 16.171875 13.910156 C 16.171875 14.925781 17.035156 15.757812 18.089844 15.757812 C 19.144531 15.757812 20.007812 14.925781 20.007812 13.910156 C 20.007812 13.800781 20.105469 13.707031 20.222656 13.707031 C 20.339844 13.707031 20.433594 13.800781 20.433594 13.910156 C 20.433594 15.152344 19.378906 16.164062 18.089844 16.164062 C 16.800781 16.164062 15.746094 15.152344 15.746094 13.910156 C 15.746094 13.800781 15.839844 13.707031 15.957031 13.707031 Z M 15.957031 13.707031 " fill-opacity="1" fill-rule="nonzero"/></g><g fill="#0c1a62" fill-opacity="1"><g transform="translate(1.793865, 24.665134)"><g><path d="M 0.296875 -2.984375 L 1.703125 -2.984375 C 2.046875 -2.984375 2.316406 -2.914062 2.515625 -2.78125 C 2.710938 -2.644531 2.8125 -2.460938 2.8125 -2.234375 C 2.8125 -2.078125 2.765625 -1.941406 2.671875 -1.828125 C 2.578125 -1.710938 2.453125 -1.628906 2.296875 -1.578125 C 2.484375 -1.546875 2.628906 -1.460938 2.734375 -1.328125 C 2.847656 -1.191406 2.90625 -1.023438 2.90625 -0.828125 C 2.90625 -0.578125 2.800781 -0.375 2.59375 -0.21875 C 2.394531 -0.0703125 2.117188 0 1.765625 0 L 0.296875 0 Z M 1.046875 -2.40625 L 1.046875 -1.796875 L 1.671875 -1.796875 C 1.773438 -1.796875 1.859375 -1.820312 1.921875 -1.875 C 1.992188 -1.925781 2.03125 -2.003906 2.03125 -2.109375 C 2.03125 -2.203125 1.992188 -2.273438 1.921875 -2.328125 C 1.859375 -2.378906 1.773438 -2.40625 1.671875 -2.40625 Z M 1.046875 -1.25 L 1.046875 -0.578125 L 1.671875 -0.578125 C 1.804688 -0.578125 1.914062 -0.609375 2 -0.671875 C 2.082031 -0.734375 2.125 -0.816406 2.125 -0.921875 C 2.125 -1.023438 2.082031 -1.101562 2 -1.15625 C 1.914062 -1.21875 1.804688 -1.25 1.671875 -1.25 Z M 1.046875 -1.25 "/></g></g></g><g fill="#0c1a62" fill-opacity="1"><g transform="translate(5.053142, 24.665134)"><g><path d="M 2.984375 -2.984375 L 2.984375 -1.25 C 2.984375 -0.851562 2.859375 -0.539062 2.609375 -0.3125 C 2.367188 -0.0820312 2.039062 0.03125 1.625 0.03125 C 1.207031 0.03125 0.875 -0.0820312 0.625 -0.3125 C 0.375 -0.539062 0.25 -0.851562 0.25 -1.25 L 0.25 -2.984375 L 1 -2.984375 L 1 -1.25 C 1 -1.050781 1.054688 -0.890625 1.171875 -0.765625 C 1.296875 -0.648438 1.445312 -0.59375 1.625 -0.59375 C 1.8125 -0.59375 1.957031 -0.648438 2.0625 -0.765625 C 2.175781 -0.890625 2.234375 -1.050781 2.234375 -1.25 L 2.234375 -2.984375 Z M 2.984375 -2.984375 "/></g></g></g><g fill="#0c1a62" fill-opacity="1"><g transform="translate(8.495615, 24.665134)"><g><path d="M 2.28125 -1.515625 L 2.9375 -1.515625 L 2.9375 -0.359375 C 2.78125 -0.242188 2.585938 -0.148438 2.359375 -0.078125 C 2.128906 -0.00390625 1.910156 0.03125 1.703125 0.03125 C 1.242188 0.03125 0.863281 -0.113281 0.5625 -0.40625 C 0.257812 -0.695312 0.109375 -1.0625 0.109375 -1.5 C 0.109375 -1.925781 0.265625 -2.285156 0.578125 -2.578125 C 0.890625 -2.867188 1.28125 -3.015625 1.75 -3.015625 C 1.96875 -3.015625 2.1875 -2.972656 2.40625 -2.890625 C 2.625 -2.804688 2.8125 -2.695312 2.96875 -2.5625 L 2.546875 -2.046875 C 2.429688 -2.148438 2.300781 -2.226562 2.15625 -2.28125 C 2.019531 -2.34375 1.882812 -2.375 1.75 -2.375 C 1.5 -2.375 1.289062 -2.289062 1.125 -2.125 C 0.957031 -1.957031 0.875 -1.75 0.875 -1.5 C 0.875 -1.238281 0.957031 -1.019531 1.125 -0.84375 C 1.289062 -0.675781 1.5 -0.59375 1.75 -0.59375 C 1.90625 -0.59375 2.082031 -0.644531 2.28125 -0.75 Z M 2.28125 -1.515625 "/></g></g></g><g fill="#0c1a62" fill-opacity="1"><g transform="translate(11.874182, 24.665134)"><g><path d="M 2.578125 -2.375 L 1.6875 -2.375 L 1.6875 0 L 0.921875 0 L 0.921875 -2.375 L 0.03125 -2.375 L 0.03125 -2.984375 L 2.578125 -2.984375 Z M 2.578125 -2.375 "/></g></g></g><g fill="#0c1a62" fill-opacity="1"><g transform="translate(14.690375, 24.665134)"><g><path d="M 2.09375 0 L 1.65625 -0.84375 L 1.0625 -0.84375 L 1.0625 0 L 0.296875 0 L 0.296875 -2.984375 L 1.640625 -2.984375 C 2.035156 -2.984375 2.335938 -2.890625 2.546875 -2.703125 C 2.765625 -2.523438 2.875 -2.269531 2.875 -1.9375 C 2.875 -1.476562 2.691406 -1.160156 2.328125 -0.984375 L 2.953125 0 Z M 1.0625 -1.4375 L 1.640625 -1.4375 C 1.796875 -1.4375 1.921875 -1.476562 2.015625 -1.5625 C 2.109375 -1.644531 2.15625 -1.765625 2.15625 -1.921875 C 2.15625 -2.078125 2.109375 -2.191406 2.015625 -2.265625 C 1.921875 -2.347656 1.796875 -2.390625 1.640625 -2.390625 L 1.0625 -2.390625 Z M 1.0625 -1.4375 "/></g></g></g><g fill="#0c1a62" fill-opacity="1"><g transform="translate(17.987996, 24.665134)"><g><path d="M 2.28125 -0.546875 L 0.984375 -0.546875 L 0.765625 0 L -0.015625 0 L 1.265625 -2.984375 L 2.046875 -2.984375 L 3.3125 0 L 2.5 0 Z M 2.0625 -1.125 L 1.640625 -2.234375 L 1.203125 -1.125 Z M 2.0625 -1.125 "/></g></g></g><g fill="#0c1a62" fill-opacity="1"><g transform="translate(21.481594, 24.665134)"><g><path d="M 1.703125 -3.015625 C 1.921875 -3.015625 2.132812 -2.96875 2.34375 -2.875 C 2.5625 -2.78125 2.75 -2.660156 2.90625 -2.515625 L 2.46875 -1.984375 C 2.363281 -2.109375 2.242188 -2.203125 2.109375 -2.265625 C 1.972656 -2.335938 1.835938 -2.375 1.703125 -2.375 C 1.472656 -2.375 1.273438 -2.289062 1.109375 -2.125 C 0.953125 -1.957031 0.875 -1.753906 0.875 -1.515625 C 0.875 -1.265625 0.953125 -1.050781 1.109375 -0.875 C 1.273438 -0.707031 1.472656 -0.625 1.703125 -0.625 C 1.828125 -0.625 1.957031 -0.65625 2.09375 -0.71875 C 2.226562 -0.78125 2.351562 -0.867188 2.46875 -0.984375 L 2.90625 -0.515625 C 2.738281 -0.347656 2.546875 -0.210938 2.328125 -0.109375 C 2.109375 -0.015625 1.890625 0.03125 1.671875 0.03125 C 1.222656 0.03125 0.847656 -0.113281 0.546875 -0.40625 C 0.253906 -0.695312 0.109375 -1.0625 0.109375 -1.5 C 0.109375 -1.925781 0.257812 -2.285156 0.5625 -2.578125 C 0.863281 -2.867188 1.242188 -3.015625 1.703125 -3.015625 Z M 1.703125 -3.015625 "/></g></g></g><g fill="#0c1a62" fill-opacity="1"><g transform="translate(24.64288, 24.665134)"><g><path d="M 2.25 0 L 1.453125 -1.171875 L 1.0625 -0.734375 L 1.0625 0 L 0.296875 0 L 0.296875 -2.984375 L 1.0625 -2.984375 L 1.0625 -1.6875 L 2.203125 -2.984375 L 3.078125 -2.984375 L 1.96875 -1.75 L 3.15625 0 Z M 2.25 0 "/></g></g></g><g fill="#0c1a62" fill-opacity="1"><g transform="translate(28.038488, 24.665134)"><g><path d="M 2.640625 -2.390625 L 1.0625 -2.390625 L 1.0625 -1.796875 L 2.484375 -1.796875 L 2.484375 -1.203125 L 1.0625 -1.203125 L 1.0625 -0.59375 L 2.6875 -0.59375 L 2.6875 0 L 0.296875 0 L 0.296875 -2.984375 L 2.640625 -2.984375 Z M 2.640625 -2.390625 "/></g></g></g><g fill="#0c1a62" fill-opacity="1"><g transform="translate(31.123086, 24.665134)"><g><path d="M 2.09375 0 L 1.65625 -0.84375 L 1.0625 -0.84375 L 1.0625 0 L 0.296875 0 L 0.296875 -2.984375 L 1.640625 -2.984375 C 2.035156 -2.984375 2.335938 -2.890625 2.546875 -2.703125 C 2.765625 -2.523438 2.875 -2.269531 2.875 -1.9375 C 2.875 -1.476562 2.691406 -1.160156 2.328125 -0.984375 L 2.953125 0 Z M 1.0625 -1.4375 L 1.640625 -1.4375 C 1.796875 -1.4375 1.921875 -1.476562 2.015625 -1.5625 C 2.109375 -1.644531 2.15625 -1.765625 2.15625 -1.921875 C 2.15625 -2.078125 2.109375 -2.191406 2.015625 -2.265625 C 1.921875 -2.347656 1.796875 -2.390625 1.640625 -2.390625 L 1.0625 -2.390625 Z M 1.0625 -1.4375 "/></g></g></g><g fill="#00c2cb" fill-opacity="1"><g transform="translate(5.59768, 28.232178)"><g><path d="M 0.15625 -1.59375 L 0.84375 -1.59375 C 1.09375 -1.59375 1.296875 -1.519531 1.453125 -1.375 C 1.609375 -1.226562 1.6875 -1.035156 1.6875 -0.796875 C 1.6875 -0.554688 1.609375 -0.363281 1.453125 -0.21875 C 1.296875 -0.0703125 1.085938 0 0.828125 0 L 0.15625 0 Z M 0.5625 -1.265625 L 0.5625 -0.328125 L 0.859375 -0.328125 C 0.984375 -0.328125 1.082031 -0.367188 1.15625 -0.453125 C 1.238281 -0.546875 1.28125 -0.660156 1.28125 -0.796875 C 1.28125 -0.929688 1.238281 -1.039062 1.15625 -1.125 C 1.070312 -1.21875 0.96875 -1.265625 0.84375 -1.265625 Z M 0.5625 -1.265625 "/></g></g></g><g fill="#00c2cb" fill-opacity="1"><g transform="translate(7.62355, 28.232178)"><g><path d="M 1.40625 -1.28125 L 0.5625 -1.28125 L 0.5625 -0.953125 L 1.328125 -0.953125 L 1.328125 -0.640625 L 0.5625 -0.640625 L 0.5625 -0.3125 L 1.4375 -0.3125 L 1.4375 0 L 0.15625 0 L 0.15625 -1.59375 L 1.40625 -1.59375 Z M 1.40625 -1.28125 "/></g></g></g><g fill="#00c2cb" fill-opacity="1"><g transform="translate(9.437042, 28.232178)"><g><path d="M 1.03125 0 L 0.625 0 L 0 -1.59375 L 0.4375 -1.59375 L 0.84375 -0.421875 L 1.25 -1.59375 L 1.671875 -1.59375 Z M 1.03125 0 "/></g></g></g><g fill="#00c2cb" fill-opacity="1"><g transform="translate(11.376133, 28.232178)"><g><path d="M 1.40625 -1.28125 L 0.5625 -1.28125 L 0.5625 -0.953125 L 1.328125 -0.953125 L 1.328125 -0.640625 L 0.5625 -0.640625 L 0.5625 -0.3125 L 1.4375 -0.3125 L 1.4375 0 L 0.15625 0 L 0.15625 -1.59375 L 1.40625 -1.59375 Z M 1.40625 -1.28125 "/></g></g></g><g fill="#00c2cb" fill-opacity="1"><g transform="translate(13.189625, 28.232178)"><g><path d="M 0.5625 -0.34375 L 1.25 -0.34375 L 1.25 0 L 0.15625 0 L 0.15625 -1.59375 L 0.5625 -1.59375 Z M 0.5625 -0.34375 "/></g></g></g><g fill="#00c2cb" fill-opacity="1"><g transform="translate(14.742785, 28.232178)"><g><path d="M 0.921875 -1.609375 C 1.160156 -1.609375 1.363281 -1.53125 1.53125 -1.375 C 1.695312 -1.21875 1.78125 -1.023438 1.78125 -0.796875 C 1.78125 -0.566406 1.695312 -0.375 1.53125 -0.21875 C 1.363281 -0.0625 1.15625 0.015625 0.90625 0.015625 C 0.664062 0.015625 0.460938 -0.0625 0.296875 -0.21875 C 0.140625 -0.375 0.0625 -0.566406 0.0625 -0.796875 C 0.0625 -1.035156 0.140625 -1.226562 0.296875 -1.375 C 0.460938 -1.53125 0.671875 -1.609375 0.921875 -1.609375 Z M 0.921875 -1.265625 C 0.796875 -1.265625 0.6875 -1.21875 0.59375 -1.125 C 0.507812 -1.039062 0.46875 -0.929688 0.46875 -0.796875 C 0.46875 -0.660156 0.507812 -0.546875 0.59375 -0.453125 C 0.6875 -0.367188 0.796875 -0.328125 0.921875 -0.328125 C 1.046875 -0.328125 1.148438 -0.367188 1.234375 -0.453125 C 1.316406 -0.546875 1.359375 -0.660156 1.359375 -0.796875 C 1.359375 -0.929688 1.316406 -1.039062 1.234375 -1.125 C 1.148438 -1.21875 1.046875 -1.265625 0.921875 -1.265625 Z M 0.921875 -1.265625 "/></g></g></g><g fill="#00c2cb" fill-opacity="1"><g transform="translate(16.85543, 28.232178)"><g><path d="M 0.15625 -1.59375 L 0.859375 -1.59375 C 1.054688 -1.59375 1.210938 -1.546875 1.328125 -1.453125 C 1.441406 -1.359375 1.5 -1.222656 1.5 -1.046875 C 1.5 -0.859375 1.441406 -0.710938 1.328125 -0.609375 C 1.210938 -0.503906 1.054688 -0.453125 0.859375 -0.453125 L 0.5625 -0.453125 L 0.5625 0 L 0.15625 0 Z M 0.5625 -1.28125 L 0.5625 -0.765625 L 0.828125 -0.765625 C 0.921875 -0.765625 0.988281 -0.785156 1.03125 -0.828125 C 1.082031 -0.878906 1.109375 -0.945312 1.109375 -1.03125 C 1.109375 -1.113281 1.082031 -1.175781 1.03125 -1.21875 C 0.988281 -1.257812 0.921875 -1.28125 0.828125 -1.28125 Z M 0.5625 -1.28125 "/></g></g></g><g fill="#00c2cb" fill-opacity="1"><g transform="translate(18.682624, 28.232178)"><g><path d="M 1.40625 -1.28125 L 0.5625 -1.28125 L 0.5625 -0.953125 L 1.328125 -0.953125 L 1.328125 -0.640625 L 0.5625 -0.640625 L 0.5625 -0.3125 L 1.4375 -0.3125 L 1.4375 0 L 0.15625 0 L 0.15625 -1.59375 L 1.40625 -1.59375 Z M 1.40625 -1.28125 "/></g></g></g><g fill="#00c2cb" fill-opacity="1"><g transform="translate(20.496116, 28.232178)"><g><path d="M 1.125 0 L 0.890625 -0.453125 L 0.5625 -0.453125 L 0.5625 0 L 0.15625 0 L 0.15625 -1.59375 L 0.875 -1.59375 C 1.082031 -1.59375 1.242188 -1.546875 1.359375 -1.453125 C 1.472656 -1.359375 1.53125 -1.222656 1.53125 -1.046875 C 1.53125 -0.796875 1.4375 -0.625 1.25 -0.53125 L 1.578125 0 Z M 0.5625 -0.765625 L 0.875 -0.765625 C 0.957031 -0.765625 1.023438 -0.785156 1.078125 -0.828125 C 1.128906 -0.878906 1.15625 -0.945312 1.15625 -1.03125 C 1.15625 -1.113281 1.128906 -1.175781 1.078125 -1.21875 C 1.023438 -1.257812 0.957031 -1.28125 0.875 -1.28125 L 0.5625 -1.28125 Z M 0.5625 -0.765625 "/></g></g></g><g fill="#00c2cb" fill-opacity="1"><g transform="translate(22.423788, 28.232178)"><g/></g></g><g fill="#00c2cb" fill-opacity="1"><g transform="translate(23.22792, 28.232178)"><g><path d="M 1.375 -1.265625 L 0.90625 -1.265625 L 0.90625 0 L 0.5 0 L 0.5 -1.265625 L 0.015625 -1.265625 L 0.015625 -1.59375 L 1.375 -1.59375 Z M 1.375 -1.265625 "/></g></g></g><g fill="#00c2cb" fill-opacity="1"><g transform="translate(24.897542, 28.232178)"><g><path d="M 0.921875 -1.609375 C 1.160156 -1.609375 1.363281 -1.53125 1.53125 -1.375 C 1.695312 -1.21875 1.78125 -1.023438 1.78125 -0.796875 C 1.78125 -0.566406 1.695312 -0.375 1.53125 -0.21875 C 1.363281 -0.0625 1.15625 0.015625 0.90625 0.015625 C 0.664062 0.015625 0.460938 -0.0625 0.296875 -0.21875 C 0.140625 -0.375 0.0625 -0.566406 0.0625 -0.796875 C 0.0625 -1.035156 0.140625 -1.226562 0.296875 -1.375 C 0.460938 -1.53125 0.671875 -1.609375 0.921875 -1.609375 Z M 0.921875 -1.265625 C 0.796875 -1.265625 0.6875 -1.21875 0.59375 -1.125 C 0.507812 -1.039062 0.46875 -0.929688 0.46875 -0.796875 C 0.46875 -0.660156 0.507812 -0.546875 0.59375 -0.453125 C 0.6875 -0.367188 0.796875 -0.328125 0.921875 -0.328125 C 1.046875 -0.328125 1.148438 -0.367188 1.234375 -0.453125 C 1.316406 -0.546875 1.359375 -0.660156 1.359375 -0.796875 C 1.359375 -0.929688 1.316406 -1.039062 1.234375 -1.125 C 1.148438 -1.21875 1.046875 -1.265625 0.921875 -1.265625 Z M 0.921875 -1.265625 "/></g></g></g><g fill="#00c2cb" fill-opacity="1"><g transform="translate(27.010187, 28.232178)"><g><path d="M 0.921875 -1.609375 C 1.160156 -1.609375 1.363281 -1.53125 1.53125 -1.375 C 1.695312 -1.21875 1.78125 -1.023438 1.78125 -0.796875 C 1.78125 -0.566406 1.695312 -0.375 1.53125 -0.21875 C 1.363281 -0.0625 1.15625 0.015625 0.90625 0.015625 C 0.664062 0.015625 0.460938 -0.0625 0.296875 -0.21875 C 0.140625 -0.375 0.0625 -0.566406 0.0625 -0.796875 C 0.0625 -1.035156 0.140625 -1.226562 0.296875 -1.375 C 0.460938 -1.53125 0.671875 -1.609375 0.921875 -1.609375 Z M 0.921875 -1.265625 C 0.796875 -1.265625 0.6875 -1.21875 0.59375 -1.125 C 0.507812 -1.039062 0.46875 -0.929688 0.46875 -0.796875 C 0.46875 -0.660156 0.507812 -0.546875 0.59375 -0.453125 C 0.6875 -0.367188 0.796875 -0.328125 0.921875 -0.328125 C 1.046875 -0.328125 1.148438 -0.367188 1.234375 -0.453125 C 1.316406 -0.546875 1.359375 -0.660156 1.359375 -0.796875 C 1.359375 -0.929688 1.316406 -1.039062 1.234375 -1.125 C 1.148438 -1.21875 1.046875 -1.265625 0.921875 -1.265625 Z M 0.921875 -1.265625 "/></g></g></g><g fill="#00c2cb" fill-opacity="1"><g transform="translate(29.122832, 28.232178)"><g><path d="M 0.5625 -0.34375 L 1.25 -0.34375 L 1.25 0 L 0.15625 0 L 0.15625 -1.59375 L 0.5625 -1.59375 Z M 0.5625 -0.34375 "/></g></g></g></svg>