<svg xmlns="http://www.w3.org/2000/svg" xmlns:xlink="http://www.w3.org/1999/xlink" width="500" zoomAndPan="magnify" viewBox="0 0 375 374.999991" height="500" preserveAspectRatio="xMidYMid meet" version="1.0"><defs><g/><clipPath id="id1"><path d="M 113.324219 227 L 138 227 L 138 266 L 113.324219 266 Z M 113.324219 227 " clip-rule="nonzero"/></clipPath><clipPath id="id2"><path d="M 162 118.195312 L 213 118.195312 L 213 162 L 162 162 Z M 162 118.195312 " clip-rule="nonzero"/></clipPath><clipPath id="id3"><path d="M 238 159 L 261.824219 159 L 261.824219 190 L 238 190 Z M 238 159 " clip-rule="nonzero"/></clipPath><clipPath id="id4"><path d="M 237 226 L 261.824219 226 L 261.824219 265 L 237 265 Z M 237 226 " clip-rule="nonzero"/></clipPath><clipPath id="id5"><path d="M 122 156 L 253 156 L 253 272.695312 L 122 272.695312 Z M 122 156 " clip-rule="nonzero"/></clipPath></defs><g clip-path="url(#id1)"><path fill="#00c2cb" d="M 115.933594 265.464844 C 116.054688 265.464844 116.175781 265.464844 116.417969 265.464844 C 117.5 265.464844 118.585938 264.621094 118.828125 263.539062 L 123.648438 237.988281 L 137.867188 232.082031 C 137.144531 230.636719 136.539062 229.191406 135.9375 227.625 L 120.515625 234.011719 C 119.789062 234.375 119.1875 234.976562 119.066406 235.820312 L 114.007812 262.574219 C 113.765625 263.898438 114.609375 265.226562 115.933594 265.464844 Z M 115.933594 265.464844 " fill-opacity="1" fill-rule="nonzero"/></g><path fill="#00c2cb" d="M 122.804688 184.480469 C 123.042969 185.324219 123.648438 185.925781 124.492188 186.167969 L 135.335938 189.300781 C 135.816406 187.734375 136.539062 186.289062 137.144531 184.84375 L 127.140625 181.949219 L 121.117188 161.222656 C 120.753906 159.894531 119.429688 159.171875 118.105469 159.535156 C 116.777344 159.894531 116.054688 161.222656 116.417969 162.546875 Z M 122.804688 184.480469 " fill-opacity="1" fill-rule="nonzero"/><g clip-path="url(#id2)"><path fill="#00c2cb" d="M 164.136719 123.257812 C 164.257812 123.257812 179.199219 126.753906 183.296875 138.203125 C 173.292969 140.132812 165.824219 148.929688 165.824219 159.414062 C 165.824219 160.257812 166.183594 160.980469 166.90625 161.460938 C 167.269531 161.703125 167.75 161.824219 168.234375 161.824219 L 206.792969 161.824219 C 207.273438 161.824219 207.757812 161.703125 208.117188 161.460938 C 208.722656 160.980469 209.203125 160.257812 209.203125 159.414062 C 209.203125 148.929688 201.730469 140.132812 191.730469 138.203125 C 195.828125 126.753906 210.648438 123.257812 210.890625 123.257812 C 212.214844 123.019531 213.058594 121.691406 212.699219 120.367188 C 212.457031 119.039062 211.132812 118.195312 209.804688 118.558594 C 209.203125 118.679688 192.695312 122.414062 187.511719 135.792969 C 182.332031 122.414062 165.941406 118.679688 165.097656 118.4375 C 163.773438 118.195312 162.570312 118.921875 162.207031 120.246094 C 161.964844 121.570312 162.808594 122.898438 164.136719 123.257812 Z M 196.429688 145.070312 C 195.464844 145.433594 194.742188 146.277344 194.742188 147.363281 C 194.742188 148.6875 195.828125 149.773438 197.152344 149.773438 C 197.636719 149.773438 197.996094 149.652344 198.359375 149.410156 C 198.960938 149.050781 199.441406 148.324219 199.5625 147.601562 C 201.972656 150.132812 203.660156 153.386719 204.261719 157.003906 L 170.761719 157.003906 C 171.246094 153.386719 172.933594 150.132812 175.460938 147.601562 C 175.582031 148.324219 175.945312 149.050781 176.667969 149.410156 C 177.027344 149.652344 177.390625 149.773438 177.871094 149.773438 C 179.199219 149.773438 180.28125 148.6875 180.28125 147.363281 C 180.28125 146.277344 179.558594 145.433594 178.59375 145.070312 C 181.125 143.503906 184.257812 142.542969 187.511719 142.542969 C 190.765625 142.542969 193.777344 143.503906 196.429688 145.070312 Z M 196.429688 145.070312 " fill-opacity="1" fill-rule="nonzero"/></g><g clip-path="url(#id3)"><path fill="#00c2cb" d="M 240.050781 189.902344 L 253.066406 186.167969 C 253.910156 185.925781 254.511719 185.324219 254.753906 184.480469 L 261.019531 162.425781 C 261.378906 161.101562 260.65625 159.773438 259.332031 159.414062 C 258.007812 159.050781 256.679688 159.773438 256.320312 161.101562 L 250.414062 181.828125 L 238.242188 185.324219 C 238.964844 186.890625 239.570312 188.457031 240.050781 189.902344 Z M 240.050781 189.902344 " fill-opacity="1" fill-rule="nonzero"/></g><g clip-path="url(#id4)"><path fill="#00c2cb" d="M 255.957031 234.613281 C 255.835938 233.769531 255.234375 233.167969 254.511719 232.808594 L 239.570312 226.539062 C 238.964844 228.105469 238.363281 229.554688 237.761719 231 L 251.5 236.664062 L 256.320312 262.210938 C 256.558594 263.417969 257.523438 264.140625 258.730469 264.140625 C 258.847656 264.140625 258.96875 264.140625 259.210938 264.140625 C 260.535156 263.898438 261.378906 262.574219 261.140625 261.367188 Z M 255.957031 234.613281 " fill-opacity="1" fill-rule="nonzero"/></g><g clip-path="url(#id5)"><path fill="#00c2cb" d="M 144.855469 180.382812 C 141.722656 185.324219 139.3125 190.867188 138.105469 196.773438 L 128.949219 196.773438 C 125.332031 196.773438 122.5625 200.027344 122.5625 204.003906 L 122.5625 211.234375 C 122.5625 215.210938 125.453125 218.464844 128.949219 218.464844 L 138.105469 218.464844 C 139.433594 224.371094 141.722656 229.914062 144.976562 234.855469 L 138.46875 241.363281 C 135.9375 243.894531 136.179688 248.234375 139.070312 251.003906 L 144.132812 256.066406 C 145.699219 257.632812 147.625 258.355469 149.554688 258.355469 C 151.121094 258.355469 152.6875 257.753906 153.894531 256.667969 L 160.398438 250.160156 C 165.339844 253.292969 170.882812 255.703125 176.789062 257.03125 L 176.789062 266.308594 C 176.789062 269.804688 180.042969 272.695312 184.019531 272.695312 L 191.25 272.695312 C 195.226562 272.695312 198.476562 269.804688 198.476562 266.308594 L 198.476562 257.03125 C 204.382812 255.703125 209.925781 253.414062 214.867188 250.160156 L 221.375 256.667969 C 222.578125 257.875 224.023438 258.355469 225.710938 258.355469 C 227.519531 258.355469 229.566406 257.632812 231.011719 256.066406 L 236.074219 251.003906 C 238.847656 248.113281 239.085938 243.894531 236.675781 241.363281 L 230.171875 234.855469 C 233.304688 229.914062 235.714844 224.371094 237.039062 218.464844 L 246.195312 218.464844 C 249.691406 218.464844 252.582031 215.210938 252.582031 211.234375 L 252.582031 204.003906 C 252.582031 200.027344 249.691406 196.773438 246.195312 196.773438 L 236.917969 196.773438 C 235.59375 190.867188 233.304688 185.324219 230.050781 180.382812 L 236.558594 173.875 C 239.085938 171.34375 238.847656 167.003906 235.953125 164.234375 L 230.894531 159.171875 C 229.328125 157.605469 227.398438 156.882812 225.46875 156.882812 C 223.902344 156.882812 222.335938 157.484375 221.132812 158.570312 L 214.625 165.078125 C 212.335938 167.246094 209.925781 169.175781 206.671875 169.175781 L 168.113281 169.175781 C 164.617188 169.175781 162.570312 167.488281 160.160156 165.078125 L 153.773438 158.449219 C 152.566406 157.242188 151.121094 156.761719 149.433594 156.761719 C 147.625 156.761719 145.578125 157.484375 144.011719 159.050781 L 138.949219 164.113281 C 136.058594 166.886719 135.816406 171.222656 138.347656 173.753906 Z M 187.511719 183.515625 C 197.152344 183.515625 204.984375 191.109375 204.984375 200.386719 C 204.984375 201.714844 203.902344 202.796875 202.574219 202.796875 C 201.25 202.796875 200.164062 201.714844 200.164062 200.386719 C 200.164062 193.761719 194.5 188.335938 187.511719 188.335938 C 180.523438 188.335938 174.859375 193.761719 174.859375 200.386719 C 174.859375 201.714844 173.777344 202.796875 172.449219 202.796875 C 171.125 202.796875 170.039062 201.714844 170.039062 200.386719 C 170.039062 191.109375 177.871094 183.515625 187.511719 183.515625 Z M 189.921875 207.621094 C 189.921875 208.945312 188.839844 210.03125 187.511719 210.03125 C 186.1875 210.03125 185.101562 208.945312 185.101562 207.621094 C 185.101562 206.292969 186.1875 205.207031 187.511719 205.207031 C 188.839844 205.207031 189.921875 206.292969 189.921875 207.621094 Z M 163.414062 205.207031 C 164.738281 205.207031 165.824219 206.292969 165.824219 207.621094 C 165.824219 219.550781 175.582031 229.3125 187.511719 229.3125 C 199.441406 229.3125 209.203125 219.550781 209.203125 207.621094 C 209.203125 206.292969 210.289062 205.207031 211.613281 205.207031 C 212.9375 205.207031 214.023438 206.292969 214.023438 207.621094 C 214.023438 222.203125 202.09375 234.132812 187.511719 234.132812 C 172.933594 234.132812 161.003906 222.203125 161.003906 207.621094 C 161.003906 206.292969 162.085938 205.207031 163.414062 205.207031 Z M 163.414062 205.207031 " fill-opacity="1" fill-rule="nonzero"/></g><g fill="#ffffff" fill-opacity="1"><g transform="translate(1.775078, 328.557293)"><g><path d="M 3.421875 -34.1875 L 19.578125 -34.1875 C 23.421875 -34.1875 26.472656 -33.410156 28.734375 -31.859375 C 30.992188 -30.316406 32.125 -28.242188 32.125 -25.640625 C 32.125 -23.847656 31.601562 -22.273438 30.5625 -20.921875 C 29.519531 -19.566406 28.085938 -18.628906 26.265625 -18.109375 C 28.421875 -17.691406 30.128906 -16.703125 31.390625 -15.140625 C 32.660156 -13.578125 33.296875 -11.6875 33.296875 -9.46875 C 33.296875 -6.570312 32.113281 -4.269531 29.75 -2.5625 C 27.394531 -0.851562 24.203125 0 20.171875 0 L 3.421875 0 Z M 12.0625 -27.546875 L 12.0625 -20.515625 L 19.09375 -20.515625 C 20.363281 -20.515625 21.375 -20.828125 22.125 -21.453125 C 22.875 -22.085938 23.25 -22.960938 23.25 -24.078125 C 23.25 -25.148438 22.875 -25.992188 22.125 -26.609375 C 21.375 -27.234375 20.363281 -27.546875 19.09375 -27.546875 Z M 12.0625 -14.265625 L 12.0625 -6.6875 L 19.09375 -6.6875 C 20.71875 -6.6875 21.992188 -7.023438 22.921875 -7.703125 C 23.847656 -8.390625 24.3125 -9.335938 24.3125 -10.546875 C 24.3125 -11.679688 23.847656 -12.582031 22.921875 -13.25 C 21.992188 -13.925781 20.71875 -14.265625 19.09375 -14.265625 Z M 12.0625 -14.265625 "/></g></g></g><g fill="#ffffff" fill-opacity="1"><g transform="translate(39.126913, 328.557293)"><g><path d="M 34.1875 -34.1875 L 34.1875 -14.359375 C 34.1875 -9.828125 32.785156 -6.234375 29.984375 -3.578125 C 27.179688 -0.929688 23.390625 0.390625 18.609375 0.390625 C 13.785156 0.390625 9.945312 -0.929688 7.09375 -3.578125 C 4.25 -6.234375 2.828125 -9.828125 2.828125 -14.359375 L 2.828125 -34.1875 L 11.53125 -34.1875 L 11.53125 -14.359375 C 11.53125 -12.078125 12.1875 -10.257812 13.5 -8.90625 C 14.820312 -7.5625 16.539062 -6.890625 18.65625 -6.890625 C 20.738281 -6.890625 22.40625 -7.554688 23.65625 -8.890625 C 24.90625 -10.222656 25.53125 -12.046875 25.53125 -14.359375 L 25.53125 -34.1875 Z M 34.1875 -34.1875 "/></g></g></g><g fill="#ffffff" fill-opacity="1"><g transform="translate(78.578217, 328.557293)"><g><path d="M 26.125 -17.390625 L 33.640625 -17.390625 L 33.640625 -4.046875 C 31.785156 -2.742188 29.546875 -1.675781 26.921875 -0.84375 C 24.304688 -0.0195312 21.8125 0.390625 19.4375 0.390625 C 14.226562 0.390625 9.878906 -1.273438 6.390625 -4.609375 C 2.910156 -7.953125 1.171875 -12.113281 1.171875 -17.09375 C 1.171875 -22.039062 2.960938 -26.171875 6.546875 -29.484375 C 10.128906 -32.804688 14.617188 -34.46875 20.015625 -34.46875 C 22.554688 -34.46875 25.078125 -34.007812 27.578125 -33.09375 C 30.085938 -32.1875 32.222656 -30.953125 33.984375 -29.390625 L 29.109375 -23.484375 C 27.867188 -24.628906 26.429688 -25.535156 24.796875 -26.203125 C 23.171875 -26.867188 21.5625 -27.203125 19.96875 -27.203125 C 17.164062 -27.203125 14.8125 -26.234375 12.90625 -24.296875 C 11.007812 -22.359375 10.0625 -19.957031 10.0625 -17.09375 C 10.0625 -14.195312 11.019531 -11.769531 12.9375 -9.8125 C 14.863281 -7.863281 17.238281 -6.890625 20.0625 -6.890625 C 21.882812 -6.890625 23.90625 -7.441406 26.125 -8.546875 Z M 26.125 -17.390625 "/></g></g></g><g fill="#ffffff" fill-opacity="1"><g transform="translate(117.297138, 328.557293)"><g><path d="M 29.546875 -27.203125 L 19.234375 -27.203125 L 19.234375 0 L 10.546875 0 L 10.546875 -27.203125 L 0.34375 -27.203125 L 0.34375 -34.234375 L 29.546875 -34.234375 Z M 29.546875 -27.203125 "/></g></g></g><g fill="#ffffff" fill-opacity="1"><g transform="translate(149.571161, 328.557293)"><g><path d="M 24.03125 0 L 18.953125 -9.625 L 12.109375 -9.625 L 12.109375 0 L 3.421875 0 L 3.421875 -34.1875 L 18.703125 -34.1875 C 23.222656 -34.1875 26.71875 -33.148438 29.1875 -31.078125 C 31.664062 -29.015625 32.90625 -26.078125 32.90625 -22.265625 C 32.90625 -16.992188 30.835938 -13.332031 26.703125 -11.28125 L 33.890625 0 Z M 12.109375 -16.453125 L 18.703125 -16.453125 C 20.585938 -16.453125 22.050781 -16.921875 23.09375 -17.859375 C 24.132812 -18.804688 24.65625 -20.175781 24.65625 -21.96875 C 24.65625 -23.726562 24.132812 -25.0625 23.09375 -25.96875 C 22.050781 -26.882812 20.585938 -27.34375 18.703125 -27.34375 L 12.109375 -27.34375 Z M 12.109375 -16.453125 "/></g></g></g><g fill="#ffffff" fill-opacity="1"><g transform="translate(187.362426, 328.557293)"><g><path d="M 26.125 -6.296875 L 11.1875 -6.296875 L 8.6875 0 L -0.25 0 L 14.5 -34.1875 L 23.4375 -34.1875 L 37.84375 0 L 28.5625 0 Z M 23.578125 -12.890625 L 18.703125 -25.53125 L 13.71875 -12.890625 Z M 23.578125 -12.890625 "/></g></g></g><g fill="#ffffff" fill-opacity="1"><g transform="translate(227.399627, 328.557293)"><g><path d="M 19.4375 -34.46875 C 21.976562 -34.46875 24.472656 -33.945312 26.921875 -32.90625 C 29.378906 -31.863281 31.472656 -30.46875 33.203125 -28.71875 L 28.171875 -22.75 C 27.066406 -24.125 25.738281 -25.207031 24.1875 -26 C 22.644531 -26.800781 21.109375 -27.203125 19.578125 -27.203125 C 16.878906 -27.203125 14.617188 -26.25 12.796875 -24.34375 C 10.972656 -22.4375 10.0625 -20.082031 10.0625 -17.28125 C 10.0625 -14.414062 10.972656 -12.023438 12.796875 -10.109375 C 14.617188 -8.191406 16.878906 -7.234375 19.578125 -7.234375 C 21.015625 -7.234375 22.503906 -7.585938 24.046875 -8.296875 C 25.597656 -9.015625 26.972656 -9.992188 28.171875 -11.234375 L 33.25 -5.859375 C 31.394531 -3.972656 29.207031 -2.457031 26.6875 -1.3125 C 24.164062 -0.175781 21.648438 0.390625 19.140625 0.390625 C 13.992188 0.390625 9.710938 -1.285156 6.296875 -4.640625 C 2.878906 -7.992188 1.171875 -12.175781 1.171875 -17.1875 C 1.171875 -22.101562 2.910156 -26.210938 6.390625 -29.515625 C 9.878906 -32.816406 14.226562 -34.46875 19.4375 -34.46875 Z M 19.4375 -34.46875 "/></g></g></g><g fill="#ffffff" fill-opacity="1"><g transform="translate(263.628472, 328.557293)"><g><path d="M 25.6875 0 L 16.65625 -13.421875 L 12.109375 -8.40625 L 12.109375 0 L 3.421875 0 L 3.421875 -34.1875 L 12.109375 -34.1875 L 12.109375 -19.390625 L 25.203125 -34.1875 L 35.25 -34.1875 L 22.5625 -20.015625 L 36.078125 0 Z M 25.6875 0 "/></g></g></g><g fill="#ffffff" fill-opacity="1"><g transform="translate(302.542689, 328.557293)"><g><path d="M 30.171875 -27.34375 L 12.109375 -27.34375 L 12.109375 -20.5625 L 28.421875 -20.5625 L 28.421875 -13.71875 L 12.109375 -13.71875 L 12.109375 -6.84375 L 30.71875 -6.84375 L 30.71875 0 L 3.421875 0 L 3.421875 -34.1875 L 30.171875 -34.1875 Z M 30.171875 -27.34375 "/></g></g></g><g fill="#ffffff" fill-opacity="1"><g transform="translate(337.892678, 328.557293)"><g><path d="M 24.03125 0 L 18.953125 -9.625 L 12.109375 -9.625 L 12.109375 0 L 3.421875 0 L 3.421875 -34.1875 L 18.703125 -34.1875 C 23.222656 -34.1875 26.71875 -33.148438 29.1875 -31.078125 C 31.664062 -29.015625 32.90625 -26.078125 32.90625 -22.265625 C 32.90625 -16.992188 30.835938 -13.332031 26.703125 -11.28125 L 33.890625 0 Z M 12.109375 -16.453125 L 18.703125 -16.453125 C 20.585938 -16.453125 22.050781 -16.921875 23.09375 -17.859375 C 24.132812 -18.804688 24.65625 -20.175781 24.65625 -21.96875 C 24.65625 -23.726562 24.132812 -25.0625 23.09375 -25.96875 C 22.050781 -26.882812 20.585938 -27.34375 18.703125 -27.34375 L 12.109375 -27.34375 Z M 12.109375 -16.453125 "/></g></g></g><g fill="#ffffff" fill-opacity="1"><g transform="translate(45.367412, 369.436199)"><g><path d="M 1.828125 -18.328125 L 9.71875 -18.328125 C 12.59375 -18.328125 14.929688 -17.476562 16.734375 -15.78125 C 18.546875 -14.09375 19.453125 -11.890625 19.453125 -9.171875 C 19.453125 -6.460938 18.535156 -4.253906 16.703125 -2.546875 C 14.867188 -0.847656 12.476562 0 9.53125 0 L 1.828125 0 Z M 6.5 -14.609375 L 6.5 -3.71875 L 9.8125 -3.71875 C 11.25 -3.71875 12.425781 -4.21875 13.34375 -5.21875 C 14.257812 -6.226562 14.71875 -7.535156 14.71875 -9.140625 C 14.71875 -10.742188 14.238281 -12.054688 13.28125 -13.078125 C 12.320312 -14.097656 11.097656 -14.609375 9.609375 -14.609375 Z M 6.5 -14.609375 "/></g></g></g><g fill="#ffffff" fill-opacity="1"><g transform="translate(68.584202, 369.436199)"><g><path d="M 16.1875 -14.671875 L 6.5 -14.671875 L 6.5 -11.03125 L 15.234375 -11.03125 L 15.234375 -7.359375 L 6.5 -7.359375 L 6.5 -3.671875 L 16.46875 -3.671875 L 16.46875 0 L 1.828125 0 L 1.828125 -18.328125 L 16.1875 -18.328125 Z M 16.1875 -14.671875 "/></g></g></g><g fill="#ffffff" fill-opacity="1"><g transform="translate(89.367114, 369.436199)"><g><path d="M 11.921875 0 L 7.09375 0 L -0.03125 -18.328125 L 4.953125 -18.328125 L 9.640625 -4.84375 L 14.328125 -18.328125 L 19.109375 -18.328125 Z M 11.921875 0 "/></g></g></g><g fill="#ffffff" fill-opacity="1"><g transform="translate(111.589416, 369.436199)"><g><path d="M 16.1875 -14.671875 L 6.5 -14.671875 L 6.5 -11.03125 L 15.234375 -11.03125 L 15.234375 -7.359375 L 6.5 -7.359375 L 6.5 -3.671875 L 16.46875 -3.671875 L 16.46875 0 L 1.828125 0 L 1.828125 -18.328125 L 16.1875 -18.328125 Z M 16.1875 -14.671875 "/></g></g></g><g fill="#ffffff" fill-opacity="1"><g transform="translate(132.372327, 369.436199)"><g><path d="M 6.5 -3.90625 L 14.265625 -3.90625 L 14.265625 0 L 1.828125 0 L 1.828125 -18.328125 L 6.5 -18.328125 Z M 6.5 -3.90625 "/></g></g></g><g fill="#ffffff" fill-opacity="1"><g transform="translate(150.171789, 369.436199)"><g><path d="M 10.53125 -18.484375 C 13.375 -18.484375 15.738281 -17.597656 17.625 -15.828125 C 19.507812 -14.054688 20.453125 -11.84375 20.453125 -9.1875 C 20.453125 -6.519531 19.503906 -4.285156 17.609375 -2.484375 C 15.710938 -0.691406 13.347656 0.203125 10.515625 0.203125 C 7.691406 0.203125 5.335938 -0.6875 3.453125 -2.46875 C 1.566406 -4.257812 0.625 -6.5 0.625 -9.1875 C 0.625 -11.863281 1.566406 -14.082031 3.453125 -15.84375 C 5.335938 -17.601562 7.695312 -18.484375 10.53125 -18.484375 Z M 10.578125 -14.59375 C 9.148438 -14.59375 7.925781 -14.070312 6.90625 -13.03125 C 5.894531 -11.988281 5.390625 -10.695312 5.390625 -9.15625 C 5.390625 -7.625 5.898438 -6.328125 6.921875 -5.265625 C 7.941406 -4.210938 9.160156 -3.6875 10.578125 -3.6875 C 11.992188 -3.6875 13.191406 -4.210938 14.171875 -5.265625 C 15.160156 -6.328125 15.65625 -7.625 15.65625 -9.15625 C 15.65625 -10.695312 15.160156 -11.988281 14.171875 -13.03125 C 13.191406 -14.070312 11.992188 -14.59375 10.578125 -14.59375 Z M 10.578125 -14.59375 "/></g></g></g><g fill="#ffffff" fill-opacity="1"><g transform="translate(174.383042, 369.436199)"><g><path d="M 1.828125 -18.328125 L 9.8125 -18.328125 C 12.15625 -18.328125 13.972656 -17.769531 15.265625 -16.65625 C 16.554688 -15.550781 17.203125 -13.976562 17.203125 -11.9375 C 17.203125 -9.789062 16.554688 -8.125 15.265625 -6.9375 C 13.972656 -5.75 12.15625 -5.15625 9.8125 -5.15625 L 6.5 -5.15625 L 6.5 0 L 1.828125 0 Z M 6.5 -14.671875 L 6.5 -8.828125 L 9.578125 -8.828125 C 10.609375 -8.828125 11.40625 -9.078125 11.96875 -9.578125 C 12.53125 -10.085938 12.8125 -10.820312 12.8125 -11.78125 C 12.8125 -12.726562 12.53125 -13.445312 11.96875 -13.9375 C 11.40625 -14.425781 10.609375 -14.671875 9.578125 -14.671875 Z M 6.5 -14.671875 "/></g></g></g><g fill="#ffffff" fill-opacity="1"><g transform="translate(195.322976, 369.436199)"><g><path d="M 16.1875 -14.671875 L 6.5 -14.671875 L 6.5 -11.03125 L 15.234375 -11.03125 L 15.234375 -7.359375 L 6.5 -7.359375 L 6.5 -3.671875 L 16.46875 -3.671875 L 16.46875 0 L 1.828125 0 L 1.828125 -18.328125 L 16.1875 -18.328125 Z M 16.1875 -14.671875 "/></g></g></g><g fill="#ffffff" fill-opacity="1"><g transform="translate(216.105883, 369.436199)"><g><path d="M 12.890625 0 L 10.15625 -5.15625 L 6.5 -5.15625 L 6.5 0 L 1.828125 0 L 1.828125 -18.328125 L 10.03125 -18.328125 C 12.457031 -18.328125 14.332031 -17.769531 15.65625 -16.65625 C 16.988281 -15.550781 17.65625 -13.976562 17.65625 -11.9375 C 17.65625 -9.113281 16.546875 -7.148438 14.328125 -6.046875 L 18.171875 0 Z M 6.5 -8.828125 L 10.03125 -8.828125 C 11.039062 -8.828125 11.820312 -9.078125 12.375 -9.578125 C 12.9375 -10.085938 13.21875 -10.820312 13.21875 -11.78125 C 13.21875 -12.726562 12.9375 -13.445312 12.375 -13.9375 C 11.820312 -14.425781 11.039062 -14.671875 10.03125 -14.671875 L 6.5 -14.671875 Z M 6.5 -8.828125 "/></g></g></g><g fill="#ffffff" fill-opacity="1"><g transform="translate(238.197312, 369.436199)"><g/></g></g><g fill="#ffffff" fill-opacity="1"><g transform="translate(247.412795, 369.436199)"><g><path d="M 15.84375 -14.59375 L 10.3125 -14.59375 L 10.3125 0 L 5.65625 0 L 5.65625 -14.59375 L 0.1875 -14.59375 L 0.1875 -18.359375 L 15.84375 -18.359375 Z M 15.84375 -14.59375 "/></g></g></g><g fill="#ffffff" fill-opacity="1"><g transform="translate(266.54694, 369.436199)"><g><path d="M 10.53125 -18.484375 C 13.375 -18.484375 15.738281 -17.597656 17.625 -15.828125 C 19.507812 -14.054688 20.453125 -11.84375 20.453125 -9.1875 C 20.453125 -6.519531 19.503906 -4.285156 17.609375 -2.484375 C 15.710938 -0.691406 13.347656 0.203125 10.515625 0.203125 C 7.691406 0.203125 5.335938 -0.6875 3.453125 -2.46875 C 1.566406 -4.257812 0.625 -6.5 0.625 -9.1875 C 0.625 -11.863281 1.566406 -14.082031 3.453125 -15.84375 C 5.335938 -17.601562 7.695312 -18.484375 10.53125 -18.484375 Z M 10.578125 -14.59375 C 9.148438 -14.59375 7.925781 -14.070312 6.90625 -13.03125 C 5.894531 -11.988281 5.390625 -10.695312 5.390625 -9.15625 C 5.390625 -7.625 5.898438 -6.328125 6.921875 -5.265625 C 7.941406 -4.210938 9.160156 -3.6875 10.578125 -3.6875 C 11.992188 -3.6875 13.191406 -4.210938 14.171875 -5.265625 C 15.160156 -6.328125 15.65625 -7.625 15.65625 -9.15625 C 15.65625 -10.695312 15.160156 -11.988281 14.171875 -13.03125 C 13.191406 -14.070312 11.992188 -14.59375 10.578125 -14.59375 Z M 10.578125 -14.59375 "/></g></g></g><g fill="#ffffff" fill-opacity="1"><g transform="translate(290.758194, 369.436199)"><g><path d="M 10.53125 -18.484375 C 13.375 -18.484375 15.738281 -17.597656 17.625 -15.828125 C 19.507812 -14.054688 20.453125 -11.84375 20.453125 -9.1875 C 20.453125 -6.519531 19.503906 -4.285156 17.609375 -2.484375 C 15.710938 -0.691406 13.347656 0.203125 10.515625 0.203125 C 7.691406 0.203125 5.335938 -0.6875 3.453125 -2.46875 C 1.566406 -4.257812 0.625 -6.5 0.625 -9.1875 C 0.625 -11.863281 1.566406 -14.082031 3.453125 -15.84375 C 5.335938 -17.601562 7.695312 -18.484375 10.53125 -18.484375 Z M 10.578125 -14.59375 C 9.148438 -14.59375 7.925781 -14.070312 6.90625 -13.03125 C 5.894531 -11.988281 5.390625 -10.695312 5.390625 -9.15625 C 5.390625 -7.625 5.898438 -6.328125 6.921875 -5.265625 C 7.941406 -4.210938 9.160156 -3.6875 10.578125 -3.6875 C 11.992188 -3.6875 13.191406 -4.210938 14.171875 -5.265625 C 15.160156 -6.328125 15.65625 -7.625 15.65625 -9.15625 C 15.65625 -10.695312 15.160156 -11.988281 14.171875 -13.03125 C 13.191406 -14.070312 11.992188 -14.59375 10.578125 -14.59375 Z M 10.578125 -14.59375 "/></g></g></g><g fill="#ffffff" fill-opacity="1"><g transform="translate(314.969447, 369.436199)"><g><path d="M 6.5 -3.90625 L 14.265625 -3.90625 L 14.265625 0 L 1.828125 0 L 1.828125 -18.328125 L 6.5 -18.328125 Z M 6.5 -3.90625 "/></g></g></g></svg>