<svg xmlns="http://www.w3.org/2000/svg" xmlns:xlink="http://www.w3.org/1999/xlink" width="500" zoomAndPan="magnify" viewBox="0 0 375 374.999991" height="500" preserveAspectRatio="xMidYMid meet" version="1.0"><defs><clipPath id="id1"><path d="M 38 98 L 337 98 L 337 365.394531 L 38 365.394531 Z M 38 98 " clip-rule="nonzero"/></clipPath></defs><path fill="#00c2cb" d="M 22.773438 348.757812 C 23.050781 348.757812 23.328125 348.757812 23.882812 348.757812 C 26.375 348.757812 28.867188 346.816406 29.421875 344.320312 L 40.496094 285.535156 L 73.171875 271.945312 C 71.511719 268.617188 70.128906 265.289062 68.742188 261.6875 L 33.296875 276.382812 C 31.636719 277.214844 30.25 278.601562 29.972656 280.542969 L 18.34375 342.101562 C 17.789062 345.152344 19.726562 348.203125 22.773438 348.757812 Z M 22.773438 348.757812 " fill-opacity="1" fill-rule="nonzero"/><path fill="#00c2cb" d="M 38.558594 162.410156 C 39.113281 164.351562 40.496094 165.738281 42.4375 166.292969 L 67.359375 173.503906 C 68.464844 169.898438 70.128906 166.570312 71.511719 163.242188 L 48.527344 156.589844 L 34.683594 108.894531 C 33.851562 105.84375 30.804688 104.179688 27.757812 105.011719 C 24.710938 105.84375 23.050781 108.894531 23.882812 111.941406 Z M 38.558594 162.410156 " fill-opacity="1" fill-rule="nonzero"/><path fill="#00c2cb" d="M 133.542969 21.542969 C 133.820312 21.542969 168.15625 29.585938 177.574219 55.929688 C 154.589844 60.363281 137.417969 80.609375 137.417969 104.734375 C 137.417969 106.675781 138.25 108.339844 139.910156 109.449219 C 140.742188 110.003906 141.851562 110.28125 142.957031 110.28125 L 231.574219 110.28125 C 232.679688 110.28125 233.789062 110.003906 234.617188 109.449219 C 236.003906 108.339844 237.109375 106.675781 237.109375 104.734375 C 237.109375 80.609375 219.941406 60.363281 196.957031 55.929688 C 206.371094 29.585938 240.433594 21.542969 240.988281 21.542969 C 244.035156 20.988281 245.972656 17.9375 245.140625 14.886719 C 244.585938 11.835938 241.542969 9.894531 238.496094 10.726562 C 237.109375 11.003906 199.171875 19.601562 187.265625 50.382812 C 175.359375 19.601562 137.695312 11.003906 135.757812 10.449219 C 132.710938 9.894531 129.941406 11.558594 129.113281 14.609375 C 128.558594 17.660156 130.496094 20.710938 133.542969 21.542969 Z M 207.757812 71.734375 C 205.542969 72.566406 203.878906 74.507812 203.878906 77.003906 C 203.878906 80.054688 206.371094 82.550781 209.417969 82.550781 C 210.527344 82.550781 211.355469 82.273438 212.1875 81.71875 C 213.574219 80.886719 214.679688 79.222656 214.957031 77.558594 C 220.496094 83.382812 224.371094 90.867188 225.757812 99.1875 L 148.773438 99.1875 C 149.878906 90.867188 153.757812 83.382812 159.574219 77.558594 C 159.851562 79.222656 160.679688 80.886719 162.34375 81.71875 C 163.171875 82.273438 164.003906 82.550781 165.113281 82.550781 C 168.15625 82.550781 170.648438 80.054688 170.648438 77.003906 C 170.648438 74.507812 168.988281 72.566406 166.773438 71.734375 C 172.589844 68.128906 179.789062 65.910156 187.265625 65.910156 C 194.742188 65.910156 201.664062 68.128906 207.757812 71.734375 Z M 207.757812 71.734375 " fill-opacity="1" fill-rule="nonzero"/><path fill="#00c2cb" d="M 308.003906 174.890625 L 337.910156 166.292969 C 339.847656 165.738281 341.234375 164.351562 341.785156 162.410156 L 356.1875 111.664062 C 357.015625 108.617188 355.355469 105.566406 352.308594 104.734375 C 349.261719 103.902344 346.21875 105.566406 345.386719 108.617188 L 331.816406 156.3125 L 303.847656 164.351562 C 305.511719 167.957031 306.894531 171.5625 308.003906 174.890625 Z M 308.003906 174.890625 " fill-opacity="1" fill-rule="nonzero"/><path fill="#00c2cb" d="M 344.554688 277.769531 C 344.277344 275.828125 342.894531 274.441406 341.234375 273.609375 L 306.894531 259.191406 C 305.511719 262.796875 304.125 266.121094 302.742188 269.449219 L 334.308594 282.484375 L 345.386719 341.269531 C 345.941406 344.042969 348.15625 345.707031 350.925781 345.707031 C 351.203125 345.707031 351.480469 345.707031 352.03125 345.707031 C 355.078125 345.152344 357.015625 342.101562 356.464844 339.328125 Z M 344.554688 277.769531 " fill-opacity="1" fill-rule="nonzero"/><g clip-path="url(#id1)"><path fill="#00c2cb" d="M 89.234375 152.984375 C 82.035156 164.351562 76.496094 177.109375 73.726562 190.695312 L 52.683594 190.695312 C 44.375 190.695312 38.003906 198.183594 38.003906 207.335938 L 38.003906 223.972656 C 38.003906 233.125 44.652344 240.609375 52.683594 240.609375 L 73.726562 240.609375 C 76.773438 254.199219 82.035156 266.953125 89.511719 278.324219 L 74.558594 293.296875 C 68.742188 299.121094 69.296875 309.105469 75.941406 315.480469 L 87.574219 327.128906 C 91.171875 330.734375 95.605469 332.398438 100.035156 332.398438 C 103.636719 332.398438 107.234375 331.011719 110.003906 328.515625 L 124.957031 313.539062 C 136.3125 320.75 149.050781 326.296875 162.617188 329.347656 L 162.617188 350.699219 C 162.617188 358.742188 170.097656 365.394531 179.234375 365.394531 L 195.847656 365.394531 C 204.988281 365.394531 212.464844 358.742188 212.464844 350.699219 L 212.464844 329.347656 C 226.035156 326.296875 238.773438 321.027344 250.125 313.542969 L 265.078125 328.515625 C 267.847656 331.289062 271.171875 332.398438 275.046875 332.398438 C 279.203125 332.398438 283.910156 330.734375 287.234375 327.128906 L 298.863281 315.480469 C 305.234375 308.828125 305.785156 299.121094 300.25 293.296875 L 285.292969 278.324219 C 292.496094 266.953125 298.03125 254.199219 301.078125 240.609375 L 322.125 240.609375 C 330.15625 240.609375 336.800781 233.125 336.800781 223.972656 L 336.800781 207.335938 C 336.800781 198.183594 330.15625 190.695312 322.125 190.695312 L 300.800781 190.695312 C 297.757812 177.109375 292.496094 164.351562 285.019531 152.984375 L 299.972656 138.007812 C 305.785156 132.1875 305.234375 122.203125 298.585938 115.824219 L 286.957031 104.179688 C 283.355469 100.574219 278.925781 98.910156 274.496094 98.910156 C 270.894531 98.910156 267.296875 100.296875 264.527344 102.792969 L 249.570312 117.765625 C 244.3125 122.757812 238.773438 127.195312 231.296875 127.195312 L 142.679688 127.195312 C 134.648438 127.195312 129.941406 123.3125 124.402344 117.765625 L 109.726562 102.515625 C 106.957031 99.742188 103.636719 98.632812 99.757812 98.632812 C 95.605469 98.632812 90.898438 100.296875 87.296875 103.902344 L 75.667969 115.546875 C 69.019531 121.925781 68.464844 131.910156 74.28125 137.730469 Z M 187.265625 160.195312 C 209.417969 160.195312 227.417969 177.664062 227.417969 199.015625 C 227.417969 202.066406 224.925781 204.5625 221.878906 204.5625 C 218.832031 204.5625 216.339844 202.066406 216.339844 199.015625 C 216.339844 183.765625 203.328125 171.285156 187.265625 171.285156 C 171.203125 171.285156 158.1875 183.765625 158.1875 199.015625 C 158.1875 202.066406 155.695312 204.5625 152.648438 204.5625 C 149.605469 204.5625 147.113281 202.066406 147.113281 199.015625 C 147.113281 177.664062 165.113281 160.195312 187.265625 160.195312 Z M 192.804688 215.652344 C 192.804688 218.703125 190.3125 221.199219 187.265625 221.199219 C 184.21875 221.199219 181.726562 218.703125 181.726562 215.652344 C 181.726562 212.601562 184.21875 210.109375 187.265625 210.109375 C 190.3125 210.109375 192.804688 212.601562 192.804688 215.652344 Z M 131.882812 210.109375 C 134.925781 210.109375 137.417969 212.601562 137.417969 215.652344 C 137.417969 243.105469 159.851562 265.566406 187.265625 265.566406 C 214.679688 265.566406 237.109375 243.105469 237.109375 215.652344 C 237.109375 212.601562 239.601562 210.109375 242.648438 210.109375 C 245.695312 210.109375 248.1875 212.601562 248.1875 215.652344 C 248.1875 249.207031 220.773438 276.660156 187.265625 276.660156 C 153.757812 276.660156 126.34375 249.207031 126.34375 215.652344 C 126.34375 212.601562 128.835938 210.109375 131.882812 210.109375 Z M 131.882812 210.109375 " fill-opacity="1" fill-rule="nonzero"/></g></svg>